<svg xmlns="http://www.w3.org/2000/svg" width="1920" height="1080" viewBox="0 0 1920 1080">
<defs>
<filter id="sh" x="-20%" y="-20%" width="140%" height="150%">
  <feGaussianBlur in="SourceAlpha" stdDeviation="7"/><feOffset dy="6" result="o"/>
  <feComponentTransfer><feFuncA type="linear" slope="0.45"/></feComponentTransfer>
  <feMerge><feMergeNode/><feMergeNode in="SourceGraphic"/></feMerge>
</filter>
<filter id="shs" x="-30%" y="-30%" width="160%" height="170%">
  <feGaussianBlur in="SourceAlpha" stdDeviation="3"/><feOffset dy="3" result="o"/>
  <feComponentTransfer><feFuncA type="linear" slope="0.5"/></feComponentTransfer>
  <feMerge><feMergeNode/><feMergeNode in="SourceGraphic"/></feMerge>
</filter>
<filter id="glow" x="-100%" y="-100%" width="300%" height="300%">
  <feGaussianBlur stdDeviation="6" result="b"/>
  <feMerge><feMergeNode in="b"/><feMergeNode in="SourceGraphic"/></feMerge>
</filter>
<filter id="paper" x="0" y="0" width="100%" height="100%">
  <feTurbulence type="fractalNoise" baseFrequency="0.9" numOctaves="2" seed="7" result="n"/>
  <feColorMatrix in="n" type="matrix" values="0 0 0 0 0.45  0 0 0 0 0.38  0 0 0 0 0.28  0 0 0 0.10 0" result="nc"/>
  <feComposite in="nc" in2="SourceGraphic" operator="in" result="t"/>
  <feMerge><feMergeNode in="SourceGraphic"/><feMergeNode in="t"/></feMerge>
</filter>
<filter id="rough" x="-5%" y="-5%" width="110%" height="110%">
  <feTurbulence type="fractalNoise" baseFrequency="0.035" numOctaves="2" seed="3" result="n"/>
  <feDisplacementMap in="SourceGraphic" in2="n" scale="4" xChannelSelector="R" yChannelSelector="G"/>
</filter>
<filter id="blur8" x="-50%" y="-50%" width="200%" height="200%"><feGaussianBlur stdDeviation="8"/></filter>
<filter id="blur3" x="-50%" y="-50%" width="200%" height="200%"><feGaussianBlur stdDeviation="2.5"/></filter>
</defs>
<rect width="1920" height="1080" fill="#0F1720"/>
<g transform="translate(80,70)">
<rect x="0" y="0" rx="22" ry="22" width="245" height="44" fill="#F76B15"/>
<text x="122.7" y="30" text-anchor="middle" font-family="Inter, sans-serif" font-weight="700" font-size="20" letter-spacing="2" fill="#0F1720">IDENTITATE · P19</text>
<text x="0" y="120" font-family="'Noto Serif', serif" font-weight="700" font-size="60" fill="#F3EFE6">Afișul spectacolului vieții mele</text>
</g>
<text x="1840.0" y="100.0" font-family="Inter, sans-serif" font-size="24" font-weight="400" fill="#A9B4C0" text-anchor="end" font-style="italic">personaj fictiv · spectacol imaginar, nu e un eveniment real</text>
<text x="1040.6" y="190.0" font-family="'Noto Serif', serif" font-size="30" font-weight="400" fill="#A9B4C0" text-anchor="start" font-style="italic">— design AI (personaj fictiv)</text>
<defs><linearGradient id="pp19" x1="0" y1="0" x2="1" y2="1"><stop offset="0" stop-color="#F8F0DF"/><stop offset="1" stop-color="#E3D4B6"/></linearGradient><linearGradient id="sky19" x1="0" y1="0" x2="0" y2="1"><stop offset="0" stop-color="#121D33"/><stop offset="0.65" stop-color="#2D3F63"/><stop offset="1" stop-color="#6A5872"/></linearGradient><linearGradient id="floor19" x1="0" y1="0" x2="0" y2="1"><stop offset="0" stop-color="#5B3A22"/><stop offset="1" stop-color="#2E1D12"/></linearGradient><linearGradient id="cur19" x1="0" y1="0" x2="1" y2="0" spreadMethod="repeat"><stop offset="0" stop-color="#6E1A16"/><stop offset="0.5" stop-color="#B0352B"/><stop offset="1" stop-color="#6E1A16"/></linearGradient><radialGradient id="spot19" cx="0.5" cy="0.5" r="0.5"><stop offset="0" stop-color="#FFF4D6" stop-opacity="0.75"/><stop offset="1" stop-color="#FFF4D6" stop-opacity="0"/></radialGradient><linearGradient id="beam19" x1="0" y1="0" x2="0" y2="1"><stop offset="0" stop-color="#FFF4D6" stop-opacity="0.05"/><stop offset="1" stop-color="#FFF4D6" stop-opacity="0.38"/></linearGradient></defs>
<g filter="url(#sh)"><rect x="92" y="228" width="590" height="780" fill="url(#pp19)"/></g>
<rect x="92" y="228" width="590" height="780" fill="url(#pp19)" filter="url(#paper)"/>
<rect x="86.0" y="227.0" width="60" height="18" fill="#F1E7CC" opacity="0.9" transform="rotate(-30 116.0 236.0)"/><rect x="628.0" y="227.0" width="60" height="18" fill="#F1E7CC" opacity="0.9" transform="rotate(30 658.0 236.0)"/>
<rect x="110" y="246" width="554" height="744" fill="none" stroke="#9B2C24" stroke-width="2.6"/><rect x="116" y="252" width="542" height="732" fill="none" stroke="#9B2C24" stroke-width="1"/>
<text x="387.0" y="286.0" font-family="Inter, sans-serif" font-size="14" font-weight="700" fill="#9B2C24" text-anchor="middle" letter-spacing="3.2">TEATRUL VIEȚII · STAGIUNEA A XVI-A</text>
<line x1="132" y1="300" x2="373.0" y2="300" stroke="#C9962E" stroke-width="1.4"/><line x1="401.0" y1="300" x2="642" y2="300" stroke="#C9962E" stroke-width="1.4"/><polygon points="387.0,294.0 393.0,300.0 387.0,306.0 381.0,300.0" fill="#C9962E"/>
<text x="387.0" y="330.0" font-family="'Noto Serif', serif" font-size="19" font-weight="400" fill="#5E5145" text-anchor="middle" font-style="italic">Matei S. prezintă</text>
<text x="388.5" y="382.4" font-family="'Noto Serif', serif" font-size="48.5" font-weight="700" fill="#C7B48C" text-anchor="middle">„Pe pod nu se minte”</text>
<text x="387.0" y="380.9" font-family="'Noto Serif', serif" font-size="48.5" font-weight="700" fill="#9B2C24" text-anchor="middle">„Pe pod nu se minte”</text>
<text x="387.0" y="408.9" font-family="'Noto Serif', serif" font-size="16.5" font-weight="400" fill="#2A211B" text-anchor="middle" font-style="italic">comedie dramatică în trei acte, cu o pauză: vacanța de vară</text>
<clipPath id="stage19"><rect x="128" y="424.925" width="518" height="192"/></clipPath>
<g clip-path="url(#stage19)"><rect x="128" y="424.925" width="518" height="192" fill="url(#sky19)"/><circle cx="457.5" cy="492.5" r="1.2" fill="#F3EFE6" opacity="0.66"/><circle cx="344.6" cy="501.6" r="1.0" fill="#F3EFE6" opacity="0.47"/><circle cx="291.9" cy="470.1" r="1.0" fill="#F3EFE6" opacity="0.53"/><circle cx="230.8" cy="472.9" r="1.0" fill="#F3EFE6" opacity="0.68"/><circle cx="268.2" cy="462.0" r="0.9" fill="#F3EFE6" opacity="0.67"/><circle cx="342.6" cy="490.3" r="1.4" fill="#F3EFE6" opacity="0.61"/><circle cx="227.5" cy="490.1" r="1.4" fill="#F3EFE6" opacity="0.60"/><circle cx="450.0" cy="471.7" r="1.5" fill="#F3EFE6" opacity="0.82"/><circle cx="503.2" cy="499.8" r="0.9" fill="#F3EFE6" opacity="0.67"/><circle cx="479.1" cy="493.2" r="1.1" fill="#F3EFE6" opacity="0.47"/><circle cx="437.3" cy="463.4" r="1.3" fill="#F3EFE6" opacity="0.40"/><circle cx="368.9" cy="479.5" r="0.8" fill="#F3EFE6" opacity="0.64"/><circle cx="387.0" cy="474.7" r="1.5" fill="#F3EFE6" opacity="0.83"/><circle cx="542.4" cy="469.4" r="0.7" fill="#F3EFE6" opacity="0.59"/><circle cx="233.2" cy="489.1" r="0.9" fill="#F3EFE6" opacity="0.46"/><circle cx="300.9" cy="476.2" r="1.4" fill="#F3EFE6" opacity="0.63"/><circle cx="307.9" cy="487.9" r="0.7" fill="#F3EFE6" opacity="0.50"/><circle cx="461.6" cy="491.1" r="0.8" fill="#F3EFE6" opacity="0.43"/><circle cx="389.3" cy="487.0" r="0.7" fill="#F3EFE6" opacity="0.62"/><circle cx="297.4" cy="462.6" r="0.9" fill="#F3EFE6" opacity="0.54"/><circle cx="373.9" cy="463.7" r="1.3" fill="#F3EFE6" opacity="0.84"/><circle cx="460.2" cy="461.8" r="1.3" fill="#F3EFE6" opacity="0.72"/><circle cx="191.5" cy="475.4" r="1.3" fill="#F3EFE6" opacity="0.88"/><circle cx="557.7" cy="483.3" r="1.2" fill="#F3EFE6" opacity="0.88"/><circle cx="271.8" cy="480.7" r="0.8" fill="#F3EFE6" opacity="0.79"/><circle cx="448.2" cy="467.9" r="0.9" fill="#F3EFE6" opacity="0.66"/><circle cx="465.0" cy="474.925" r="12" fill="#F3E3B5"/><circle cx="471.0" cy="470.925" r="10.5" fill="#1C2A45"/><rect x="158.0" y="552.6" width="62.0" height="22.3" fill="#6F6658" stroke="#1E1712" stroke-width="1.1"/><rect x="173.7" y="556.2" width="9.9" height="7.6" fill="#E9B556" stroke="#1E1712" stroke-width="0.7"/><rect x="194.4" y="556.2" width="9.9" height="7.6" fill="#2B241E" stroke="#1E1712" stroke-width="0.7"/><polygon points="154.3,552.6 170.4,513.3 207.6,513.3 223.7,552.6" fill="#7A3426" stroke="#1E1712" stroke-width="1.1" stroke-linejoin="round"/><line x1="159.3" y1="542.8" x2="218.7" y2="542.8" stroke="#1E1712" stroke-width="0.5" opacity="0.35"/><line x1="163.3" y1="533.0" x2="214.7" y2="533.0" stroke="#1E1712" stroke-width="0.5" opacity="0.35"/><line x1="167.4" y1="523.2" x2="210.6" y2="523.2" stroke="#1E1712" stroke-width="0.5" opacity="0.35"/><path d="M179.7,536.9 C183.4,529.6 194.6,529.6 198.3,536.9 Z" fill="#7A3426" stroke="#1E1712" stroke-width="1.1" stroke-linejoin="round"/><path d="M183.2,536.9 C185.8,532.6 192.2,532.6 194.8,536.9 Z" fill="#F2C46B" stroke="#1E1712" stroke-width="0.8"/>

<rect x="220.0" y="546.1" width="58.0" height="28.8" fill="#6F6658" stroke="#1E1712" stroke-width="1.1"/><rect x="234.7" y="550.7" width="9.3" height="9.8" fill="#E9B556" stroke="#1E1712" stroke-width="0.7"/><rect x="254.0" y="550.7" width="9.3" height="9.8" fill="#2B241E" stroke="#1E1712" stroke-width="0.7"/><polygon points="216.5,546.1 231.6,497.6 266.4,497.6 281.5,546.1" fill="#7A3426" stroke="#1E1712" stroke-width="1.1" stroke-linejoin="round"/><line x1="220.5" y1="536.4" x2="277.5" y2="536.4" stroke="#1E1712" stroke-width="0.5" opacity="0.35"/><line x1="223.6" y1="526.7" x2="274.4" y2="526.7" stroke="#1E1712" stroke-width="0.5" opacity="0.35"/><line x1="226.6" y1="517.0" x2="271.4" y2="517.0" stroke="#1E1712" stroke-width="0.5" opacity="0.35"/><line x1="229.6" y1="507.3" x2="268.4" y2="507.3" stroke="#1E1712" stroke-width="0.5" opacity="0.35"/><path d="M230.0,528.6 C233.0,522.8 241.8,522.8 244.8,528.6 Z" fill="#7A3426" stroke="#1E1712" stroke-width="1.1" stroke-linejoin="round"/><path d="M232.8,528.6 C234.9,525.2 239.9,525.2 242.0,528.6 Z" fill="#F2C46B" stroke="#1E1712" stroke-width="0.8"/>
<path d="M253.2,528.6 C256.2,522.8 265.0,522.8 268.0,528.6 Z" fill="#7A3426" stroke="#1E1712" stroke-width="1.1" stroke-linejoin="round"/><path d="M256.0,528.6 C258.1,525.2 263.1,525.2 265.2,528.6 Z" fill="#F2C46B" stroke="#1E1712" stroke-width="0.8"/>

<rect x="280.0" y="555.3" width="50.0" height="19.7" fill="#6F6658" stroke="#1E1712" stroke-width="1.1"/><rect x="292.7" y="558.4" width="8.0" height="6.7" fill="#E9B556" stroke="#1E1712" stroke-width="0.7"/><rect x="309.3" y="558.4" width="8.0" height="6.7" fill="#2B241E" stroke="#1E1712" stroke-width="0.7"/><polygon points="277.0,555.3 305.0,522.5 333.0,555.3" fill="#7A3426" stroke="#1E1712" stroke-width="1.1" stroke-linejoin="round"/><line x1="287.3" y1="544.3" x2="322.7" y2="544.3" stroke="#1E1712" stroke-width="0.5" opacity="0.35"/><line x1="296.7" y1="533.4" x2="313.3" y2="533.4" stroke="#1E1712" stroke-width="0.5" opacity="0.35"/><path d="M297.5,542.2 C300.5,536.2 309.5,536.2 312.5,542.2 Z" fill="#7A3426" stroke="#1E1712" stroke-width="1.1" stroke-linejoin="round"/><path d="M300.4,542.2 C302.4,538.7 307.6,538.7 309.6,542.2 Z" fill="#F2C46B" stroke="#1E1712" stroke-width="0.8"/>

<rect x="444.0" y="555.3" width="52.0" height="19.7" fill="#6F6658" stroke="#1E1712" stroke-width="1.1"/><rect x="457.2" y="558.4" width="8.3" height="6.7" fill="#E9B556" stroke="#1E1712" stroke-width="0.7"/><rect x="474.5" y="558.4" width="8.3" height="6.7" fill="#2B241E" stroke="#1E1712" stroke-width="0.7"/><polygon points="440.9,555.3 470.0,518.6 499.1,555.3" fill="#7A3426" stroke="#1E1712" stroke-width="1.1" stroke-linejoin="round"/><line x1="449.2" y1="546.1" x2="490.8" y2="546.1" stroke="#1E1712" stroke-width="0.5" opacity="0.35"/><line x1="456.4" y1="536.9" x2="483.6" y2="536.9" stroke="#1E1712" stroke-width="0.5" opacity="0.35"/><line x1="463.7" y1="527.7" x2="476.3" y2="527.7" stroke="#1E1712" stroke-width="0.5" opacity="0.35"/><path d="M462.2,540.6 C465.3,534.4 474.7,534.4 477.8,540.6 Z" fill="#7A3426" stroke="#1E1712" stroke-width="1.1" stroke-linejoin="round"/><path d="M465.2,540.6 C467.3,536.9 472.7,536.9 474.8,540.6 Z" fill="#F2C46B" stroke="#1E1712" stroke-width="0.8"/>

<rect x="494.0" y="546.1" width="64.0" height="28.8" fill="#6F6658" stroke="#1E1712" stroke-width="1.1"/><rect x="510.2" y="550.7" width="10.2" height="9.8" fill="#E9B556" stroke="#1E1712" stroke-width="0.7"/><rect x="531.5" y="550.7" width="10.2" height="9.8" fill="#2B241E" stroke="#1E1712" stroke-width="0.7"/><polygon points="490.2,546.1 506.8,495.0 545.2,495.0 561.8,546.1" fill="#7A3426" stroke="#1E1712" stroke-width="1.1" stroke-linejoin="round"/><line x1="494.5" y1="535.9" x2="557.5" y2="535.9" stroke="#1E1712" stroke-width="0.5" opacity="0.35"/><line x1="497.8" y1="525.7" x2="554.2" y2="525.7" stroke="#1E1712" stroke-width="0.5" opacity="0.35"/><line x1="501.1" y1="515.4" x2="550.9" y2="515.4" stroke="#1E1712" stroke-width="0.5" opacity="0.35"/><line x1="504.5" y1="505.2" x2="547.5" y2="505.2" stroke="#1E1712" stroke-width="0.5" opacity="0.35"/><path d="M505.0,527.7 C508.3,521.2 518.1,521.2 521.4,527.7 Z" fill="#7A3426" stroke="#1E1712" stroke-width="1.1" stroke-linejoin="round"/><path d="M508.1,527.7 C510.4,523.9 516.0,523.9 518.3,527.7 Z" fill="#F2C46B" stroke="#1E1712" stroke-width="0.8"/>
<path d="M530.6,527.7 C533.9,521.2 543.7,521.2 547.0,527.7 Z" fill="#7A3426" stroke="#1E1712" stroke-width="1.1" stroke-linejoin="round"/><path d="M533.7,527.7 C536.0,523.9 541.6,523.9 543.9,527.7 Z" fill="#F2C46B" stroke="#1E1712" stroke-width="0.8"/>
<path d="M520.0,510.3 C522.4,505.6 529.6,505.6 532.0,510.3 Z" fill="#7A3426" stroke="#1E1712" stroke-width="1.1" stroke-linejoin="round"/><path d="M522.3,510.3 C524.0,507.5 528.0,507.5 529.7,510.3 Z" fill="#F2C46B" stroke="#1E1712" stroke-width="0.8"/>

<rect x="560.0" y="551.3" width="58.0" height="23.6" fill="#6F6658" stroke="#1E1712" stroke-width="1.1"/><rect x="574.7" y="555.1" width="9.3" height="8.0" fill="#E9B556" stroke="#1E1712" stroke-width="0.7"/><rect x="594.0" y="555.1" width="9.3" height="8.0" fill="#2B241E" stroke="#1E1712" stroke-width="0.7"/><polygon points="556.5,551.3 571.6,510.7 606.4,510.7 621.5,551.3" fill="#7A3426" stroke="#1E1712" stroke-width="1.1" stroke-linejoin="round"/><line x1="561.3" y1="541.2" x2="616.7" y2="541.2" stroke="#1E1712" stroke-width="0.5" opacity="0.35"/><line x1="565.1" y1="531.0" x2="612.9" y2="531.0" stroke="#1E1712" stroke-width="0.5" opacity="0.35"/><line x1="568.8" y1="520.9" x2="609.2" y2="520.9" stroke="#1E1712" stroke-width="0.5" opacity="0.35"/><path d="M580.3,535.1 C583.8,528.2 594.2,528.2 597.7,535.1 Z" fill="#7A3426" stroke="#1E1712" stroke-width="1.1" stroke-linejoin="round"/><path d="M583.6,535.1 C586.0,531.0 592.0,531.0 594.4,535.1 Z" fill="#F2C46B" stroke="#1E1712" stroke-width="0.8"/>

<rect x="373.0" y="504.9" width="28.0" height="70.0" fill="#8A7E6C" stroke="#1E1712" stroke-width="1.1"/><path d="M379.7,574.9 V566.2 A7.3,7.3 0 0 1 394.3,566.2 V574.9 Z" fill="#231C16" stroke="#1E1712" stroke-width="0.9"/><line x1="373.0" y1="553.9" x2="401.0" y2="553.9" stroke="#1E1712" stroke-width="0.8"/><line x1="373.0" y1="535.7" x2="401.0" y2="535.7" stroke="#1E1712" stroke-width="0.8"/><rect x="385.0" y="543.4" width="3.9" height="6.3" rx="2.0" fill="#231C16"/><rect x="385.0" y="525.2" width="3.9" height="6.3" rx="2.0" fill="#231C16"/><rect x="371.3" y="506.3" width="31.4" height="11.2" fill="#8A7E6C" stroke="#1E1712" stroke-width="1.1"/><path d="M374.7,515.8 V511.0 A2.2,2.2 0 0 1 379.2,511.0 V515.8 Z" fill="#231C16"/><path d="M384.8,515.8 V511.0 A2.2,2.2 0 0 1 389.2,511.0 V515.8 Z" fill="#231C16"/><path d="M394.8,515.8 V511.0 A2.2,2.2 0 0 1 399.3,511.0 V515.8 Z" fill="#231C16"/><polygon points="370.2,506.3 387.0,467.8 403.8,506.3" fill="#5E2A20" stroke="#1E1712" stroke-width="1.1" stroke-linejoin="round"/><line x1="387.0" y1="467.8" x2="387.0" y2="506.3" stroke="#1E1712" stroke-width="0.6" opacity="0.45"/><rect x="369.6" y="501.8" width="5.6" height="4.5" fill="#8A7E6C" stroke="#1E1712" stroke-width="0.9"/><polygon points="368.6,501.8 372.4,487.7 376.2,501.8" fill="#5E2A20" stroke="#1E1712" stroke-width="0.9" stroke-linejoin="round"/><rect x="398.8" y="501.8" width="5.6" height="4.5" fill="#8A7E6C" stroke="#1E1712" stroke-width="0.9"/><polygon points="397.8,501.8 401.6,487.7 405.4,501.8" fill="#5E2A20" stroke="#1E1712" stroke-width="0.9" stroke-linejoin="round"/><line x1="387.0" y1="467.8" x2="387.0" y2="462.9" stroke="#1E1712" stroke-width="1.1"/><circle cx="387.0" cy="465.4" r="1.6" fill="#1E1712"/>
<rect x="128" y="586.925" width="518" height="192" fill="url(#floor19)"/><line x1="280.2" y1="586.925" x2="192.8" y2="616.925" stroke="#24160D" stroke-width="1" opacity="0.7"/><line x1="315.8" y1="586.925" x2="257.5" y2="616.925" stroke="#24160D" stroke-width="1" opacity="0.7"/><line x1="351.4" y1="586.925" x2="322.2" y2="616.925" stroke="#24160D" stroke-width="1" opacity="0.7"/><line x1="387.0" y1="586.925" x2="387.0" y2="616.925" stroke="#24160D" stroke-width="1" opacity="0.7"/><line x1="422.6" y1="586.925" x2="451.8" y2="616.925" stroke="#24160D" stroke-width="1" opacity="0.7"/><line x1="458.2" y1="586.925" x2="516.5" y2="616.925" stroke="#24160D" stroke-width="1" opacity="0.7"/><line x1="493.8" y1="586.925" x2="581.2" y2="616.925" stroke="#24160D" stroke-width="1" opacity="0.7"/><rect x="226.3" y="568.9" width="19.7" height="22.0" fill="#6C6355" stroke="#0E1418" stroke-width="1.3"/><line x1="226.3" y1="574.4" x2="246.0" y2="574.4" stroke="#0E1418" stroke-width="0.7" opacity="0.6"/><line x1="226.3" y1="579.9" x2="246.0" y2="579.9" stroke="#0E1418" stroke-width="0.7" opacity="0.6"/><line x1="226.3" y1="585.4" x2="246.0" y2="585.4" stroke="#0E1418" stroke-width="0.7" opacity="0.6"/><rect x="528.0" y="568.9" width="19.7" height="22.0" fill="#6C6355" stroke="#0E1418" stroke-width="1.3"/><line x1="528.0" y1="574.4" x2="547.7" y2="574.4" stroke="#0E1418" stroke-width="0.7" opacity="0.6"/><line x1="528.0" y1="579.9" x2="547.7" y2="579.9" stroke="#0E1418" stroke-width="0.7" opacity="0.6"/><line x1="528.0" y1="585.4" x2="547.7" y2="585.4" stroke="#0E1418" stroke-width="0.7" opacity="0.6"/><circle cx="261.7" cy="583.3" r="6.7" fill="none" stroke="#1C252D" stroke-width="1.4"/><circle cx="293.0" cy="579.0" r="3.2" fill="none" stroke="#1C252D" stroke-width="1.4"/><circle cx="481.0" cy="579.0" r="3.2" fill="none" stroke="#1C252D" stroke-width="1.4"/><circle cx="512.3" cy="583.3" r="6.7" fill="none" stroke="#1C252D" stroke-width="1.4"/><path d="M246.0,596.9 Q387.0,546.9 528.0,596.9" fill="none" stroke="#1C252D" stroke-width="4.2"/><path d="M246.0,590.9 Q387.0,540.9 528.0,590.9" fill="none" stroke="#1C252D" stroke-width="1.6"/><rect x="242.0" y="568.9" width="290.0" height="7" fill="#1C252D" stroke="#0E1418" stroke-width="0.8"/><line x1="242.0" y1="555.9" x2="532.0" y2="555.9" stroke="#1C252D" stroke-width="2.3" stroke-linecap="round"/><line x1="246.0" y1="555.9" x2="246.0" y2="568.9" stroke="#1C252D" stroke-width="1.0"/><line x1="253.2" y1="555.9" x2="253.2" y2="568.9" stroke="#1C252D" stroke-width="1.0"/><line x1="260.5" y1="555.9" x2="260.5" y2="568.9" stroke="#1C252D" stroke-width="1.0"/><line x1="267.7" y1="555.9" x2="267.7" y2="568.9" stroke="#1C252D" stroke-width="1.0"/><line x1="274.9" y1="555.9" x2="274.9" y2="568.9" stroke="#1C252D" stroke-width="1.0"/><line x1="282.2" y1="555.9" x2="282.2" y2="568.9" stroke="#1C252D" stroke-width="1.0"/><line x1="289.4" y1="555.9" x2="289.4" y2="568.9" stroke="#1C252D" stroke-width="1.0"/><line x1="296.6" y1="555.9" x2="296.6" y2="568.9" stroke="#1C252D" stroke-width="1.0"/><line x1="303.8" y1="555.9" x2="303.8" y2="568.9" stroke="#1C252D" stroke-width="1.0"/><line x1="311.1" y1="555.9" x2="311.1" y2="568.9" stroke="#1C252D" stroke-width="1.0"/><line x1="318.3" y1="555.9" x2="318.3" y2="568.9" stroke="#1C252D" stroke-width="1.0"/><line x1="325.5" y1="555.9" x2="325.5" y2="568.9" stroke="#1C252D" stroke-width="1.0"/><line x1="332.8" y1="555.9" x2="332.8" y2="568.9" stroke="#1C252D" stroke-width="1.0"/><line x1="340.0" y1="555.9" x2="340.0" y2="568.9" stroke="#1C252D" stroke-width="1.0"/><line x1="347.2" y1="555.9" x2="347.2" y2="568.9" stroke="#1C252D" stroke-width="1.0"/><line x1="354.5" y1="555.9" x2="354.5" y2="568.9" stroke="#1C252D" stroke-width="1.0"/><line x1="361.7" y1="555.9" x2="361.7" y2="568.9" stroke="#1C252D" stroke-width="1.0"/><line x1="368.9" y1="555.9" x2="368.9" y2="568.9" stroke="#1C252D" stroke-width="1.0"/><line x1="376.2" y1="555.9" x2="376.2" y2="568.9" stroke="#1C252D" stroke-width="1.0"/><line x1="383.4" y1="555.9" x2="383.4" y2="568.9" stroke="#1C252D" stroke-width="1.0"/><line x1="390.6" y1="555.9" x2="390.6" y2="568.9" stroke="#1C252D" stroke-width="1.0"/><line x1="397.8" y1="555.9" x2="397.8" y2="568.9" stroke="#1C252D" stroke-width="1.0"/><line x1="405.1" y1="555.9" x2="405.1" y2="568.9" stroke="#1C252D" stroke-width="1.0"/><line x1="412.3" y1="555.9" x2="412.3" y2="568.9" stroke="#1C252D" stroke-width="1.0"/><line x1="419.5" y1="555.9" x2="419.5" y2="568.9" stroke="#1C252D" stroke-width="1.0"/><line x1="426.8" y1="555.9" x2="426.8" y2="568.9" stroke="#1C252D" stroke-width="1.0"/><line x1="434.0" y1="555.9" x2="434.0" y2="568.9" stroke="#1C252D" stroke-width="1.0"/><line x1="441.2" y1="555.9" x2="441.2" y2="568.9" stroke="#1C252D" stroke-width="1.0"/><line x1="448.5" y1="555.9" x2="448.5" y2="568.9" stroke="#1C252D" stroke-width="1.0"/><line x1="455.7" y1="555.9" x2="455.7" y2="568.9" stroke="#1C252D" stroke-width="1.0"/><line x1="462.9" y1="555.9" x2="462.9" y2="568.9" stroke="#1C252D" stroke-width="1.0"/><line x1="470.2" y1="555.9" x2="470.2" y2="568.9" stroke="#1C252D" stroke-width="1.0"/><line x1="477.4" y1="555.9" x2="477.4" y2="568.9" stroke="#1C252D" stroke-width="1.0"/><line x1="484.6" y1="555.9" x2="484.6" y2="568.9" stroke="#1C252D" stroke-width="1.0"/><line x1="491.8" y1="555.9" x2="491.8" y2="568.9" stroke="#1C252D" stroke-width="1.0"/><line x1="499.1" y1="555.9" x2="499.1" y2="568.9" stroke="#1C252D" stroke-width="1.0"/><line x1="506.3" y1="555.9" x2="506.3" y2="568.9" stroke="#1C252D" stroke-width="1.0"/><line x1="513.5" y1="555.9" x2="513.5" y2="568.9" stroke="#1C252D" stroke-width="1.0"/><line x1="520.8" y1="555.9" x2="520.8" y2="568.9" stroke="#1C252D" stroke-width="1.0"/><line x1="528.0" y1="555.9" x2="528.0" y2="568.9" stroke="#1C252D" stroke-width="1.0"/><circle cx="249.6" cy="562.4" r="1.9" fill="none" stroke="#1C252D" stroke-width="0.8"/><circle cx="256.8" cy="562.4" r="1.9" fill="none" stroke="#1C252D" stroke-width="0.8"/><circle cx="264.1" cy="562.4" r="1.9" fill="none" stroke="#1C252D" stroke-width="0.8"/><circle cx="271.3" cy="562.4" r="1.9" fill="none" stroke="#1C252D" stroke-width="0.8"/><circle cx="278.5" cy="562.4" r="1.9" fill="none" stroke="#1C252D" stroke-width="0.8"/><circle cx="285.8" cy="562.4" r="1.9" fill="none" stroke="#1C252D" stroke-width="0.8"/><circle cx="293.0" cy="562.4" r="1.9" fill="none" stroke="#1C252D" stroke-width="0.8"/><circle cx="300.2" cy="562.4" r="1.9" fill="none" stroke="#1C252D" stroke-width="0.8"/><circle cx="307.5" cy="562.4" r="1.9" fill="none" stroke="#1C252D" stroke-width="0.8"/><circle cx="314.7" cy="562.4" r="1.9" fill="none" stroke="#1C252D" stroke-width="0.8"/><circle cx="321.9" cy="562.4" r="1.9" fill="none" stroke="#1C252D" stroke-width="0.8"/><circle cx="329.2" cy="562.4" r="1.9" fill="none" stroke="#1C252D" stroke-width="0.8"/><circle cx="336.4" cy="562.4" r="1.9" fill="none" stroke="#1C252D" stroke-width="0.8"/><circle cx="343.6" cy="562.4" r="1.9" fill="none" stroke="#1C252D" stroke-width="0.8"/><circle cx="350.8" cy="562.4" r="1.9" fill="none" stroke="#1C252D" stroke-width="0.8"/><circle cx="358.1" cy="562.4" r="1.9" fill="none" stroke="#1C252D" stroke-width="0.8"/><circle cx="365.3" cy="562.4" r="1.9" fill="none" stroke="#1C252D" stroke-width="0.8"/><circle cx="372.5" cy="562.4" r="1.9" fill="none" stroke="#1C252D" stroke-width="0.8"/><circle cx="379.8" cy="562.4" r="1.9" fill="none" stroke="#1C252D" stroke-width="0.8"/><circle cx="387.0" cy="562.4" r="1.9" fill="none" stroke="#1C252D" stroke-width="0.8"/><circle cx="394.2" cy="562.4" r="1.9" fill="none" stroke="#1C252D" stroke-width="0.8"/><circle cx="401.5" cy="562.4" r="1.9" fill="none" stroke="#1C252D" stroke-width="0.8"/><circle cx="408.7" cy="562.4" r="1.9" fill="none" stroke="#1C252D" stroke-width="0.8"/><circle cx="415.9" cy="562.4" r="1.9" fill="none" stroke="#1C252D" stroke-width="0.8"/><circle cx="423.2" cy="562.4" r="1.9" fill="none" stroke="#1C252D" stroke-width="0.8"/><circle cx="430.4" cy="562.4" r="1.9" fill="none" stroke="#1C252D" stroke-width="0.8"/><circle cx="437.6" cy="562.4" r="1.9" fill="none" stroke="#1C252D" stroke-width="0.8"/><circle cx="444.8" cy="562.4" r="1.9" fill="none" stroke="#1C252D" stroke-width="0.8"/><circle cx="452.1" cy="562.4" r="1.9" fill="none" stroke="#1C252D" stroke-width="0.8"/><circle cx="459.3" cy="562.4" r="1.9" fill="none" stroke="#1C252D" stroke-width="0.8"/><circle cx="466.5" cy="562.4" r="1.9" fill="none" stroke="#1C252D" stroke-width="0.8"/><circle cx="473.8" cy="562.4" r="1.9" fill="none" stroke="#1C252D" stroke-width="0.8"/><circle cx="481.0" cy="562.4" r="1.9" fill="none" stroke="#1C252D" stroke-width="0.8"/><circle cx="488.2" cy="562.4" r="1.9" fill="none" stroke="#1C252D" stroke-width="0.8"/><circle cx="495.5" cy="562.4" r="1.9" fill="none" stroke="#1C252D" stroke-width="0.8"/><circle cx="502.7" cy="562.4" r="1.9" fill="none" stroke="#1C252D" stroke-width="0.8"/><circle cx="509.9" cy="562.4" r="1.9" fill="none" stroke="#1C252D" stroke-width="0.8"/><circle cx="517.2" cy="562.4" r="1.9" fill="none" stroke="#1C252D" stroke-width="0.8"/><circle cx="524.4" cy="562.4" r="1.9" fill="none" stroke="#1C252D" stroke-width="0.8"/><rect x="239.0" y="550.9" width="6" height="18.0" fill="#1C252D"/><rect x="529.0" y="550.9" width="6" height="18.0" fill="#1C252D"/>
<polygon points="375.0,424.9 399.0,424.9 449.0,568.9 325.0,568.9" fill="url(#beam19)"/><ellipse cx="387.0" cy="567.925" rx="78" ry="9" fill="url(#spot19)"/><circle cx="387.0" cy="519.1" r="5.1" fill="#141015"/><path d="M380.5,526.9 Q387.0,524.7 393.5,526.9 L392.4,543.6 L381.6,543.6 Z" fill="#141015"/><rect x="376.2" y="528.0" width="5.4" height="11.9" rx="1.6" fill="#141015"/><path d="M382.1,542.6 L381.6,567.9 L385.9,567.9 L387.0,547.9 L388.1,567.9 L392.4,567.9 L391.9,542.6 Z" fill="#141015"/><line x1="381.1" y1="528.0" x2="378.4" y2="544.7" stroke="#141015" stroke-width="3.0" stroke-linecap="round"/><path d="M392.9,528.0 L400.5,521.5 L403.2,511.8" fill="none" stroke="#141015" stroke-width="3.0" stroke-linecap="round" stroke-linejoin="round"/>
<path d="M128,424.925 H192 C186,493.5 147.2,539.2 158.72,616.925 H128 Z" fill="url(#cur19)" stroke="#6E1D18" stroke-width="1.2"/><path d="M142.5,424.925 Q136.5,544.925 146.5,616.925" fill="none" stroke="#6E1D18" stroke-width="1.6" opacity="0.6"/><path d="M157.1,424.925 Q151.1,544.925 161.1,616.925" fill="none" stroke="#6E1D18" stroke-width="1.6" opacity="0.6"/><path d="M171.6,424.925 Q165.6,544.925 175.6,616.925" fill="none" stroke="#6E1D18" stroke-width="1.6" opacity="0.6"/><path d="M128,539.2107142857143 q-22,6 -34,-4" fill="none" stroke="#C9962E" stroke-width="3" stroke-linecap="round"/><path d="M646,424.925 H582 C588,493.5 626.8,539.2 615.28,616.925 H646 Z" fill="url(#cur19)" stroke="#6E1D18" stroke-width="1.2"/><path d="M631.5,424.925 Q637.5,544.925 627.5,616.925" fill="none" stroke="#6E1D18" stroke-width="1.6" opacity="0.6"/><path d="M616.9,424.925 Q622.9,544.925 612.9,616.925" fill="none" stroke="#6E1D18" stroke-width="1.6" opacity="0.6"/><path d="M602.4,424.925 Q608.4,544.925 598.4,616.925" fill="none" stroke="#6E1D18" stroke-width="1.6" opacity="0.6"/><path d="M646,539.2107142857143 q22,6 34,-4" fill="none" stroke="#C9962E" stroke-width="3" stroke-linecap="round"/><rect x="128" y="424.925" width="518" height="14" fill="#8E2620"/><path d="M128.0,436.925 Q151.5,456.925 175.1,436.925 Z" fill="#8E2620" stroke="#6E1D18" stroke-width="1"/><path d="M128.0,438.925 Q151.5,458.925 175.1,438.925" fill="none" stroke="#C9962E" stroke-width="2"/><path d="M175.1,436.925 Q198.6,456.925 222.2,436.925 Z" fill="#8E2620" stroke="#6E1D18" stroke-width="1"/><path d="M175.1,438.925 Q198.6,458.925 222.2,438.925" fill="none" stroke="#C9962E" stroke-width="2"/><path d="M222.2,436.925 Q245.7,456.925 269.3,436.925 Z" fill="#8E2620" stroke="#6E1D18" stroke-width="1"/><path d="M222.2,438.925 Q245.7,458.925 269.3,438.925" fill="none" stroke="#C9962E" stroke-width="2"/><path d="M269.3,436.925 Q292.8,456.925 316.4,436.925 Z" fill="#8E2620" stroke="#6E1D18" stroke-width="1"/><path d="M269.3,438.925 Q292.8,458.925 316.4,438.925" fill="none" stroke="#C9962E" stroke-width="2"/><path d="M316.4,436.925 Q339.9,456.925 363.5,436.925 Z" fill="#8E2620" stroke="#6E1D18" stroke-width="1"/><path d="M316.4,438.925 Q339.9,458.925 363.5,438.925" fill="none" stroke="#C9962E" stroke-width="2"/><path d="M363.5,436.925 Q387.0,456.925 410.5,436.925 Z" fill="#8E2620" stroke="#6E1D18" stroke-width="1"/><path d="M363.5,438.925 Q387.0,458.925 410.5,438.925" fill="none" stroke="#C9962E" stroke-width="2"/><path d="M410.5,436.925 Q434.1,456.925 457.6,436.925 Z" fill="#8E2620" stroke="#6E1D18" stroke-width="1"/><path d="M410.5,438.925 Q434.1,458.925 457.6,438.925" fill="none" stroke="#C9962E" stroke-width="2"/><path d="M457.6,436.925 Q481.2,456.925 504.7,436.925 Z" fill="#8E2620" stroke="#6E1D18" stroke-width="1"/><path d="M457.6,438.925 Q481.2,458.925 504.7,438.925" fill="none" stroke="#C9962E" stroke-width="2"/><path d="M504.7,436.925 Q528.3,456.925 551.8,436.925 Z" fill="#8E2620" stroke="#6E1D18" stroke-width="1"/><path d="M504.7,438.925 Q528.3,458.925 551.8,438.925" fill="none" stroke="#C9962E" stroke-width="2"/><path d="M551.8,436.925 Q575.4,456.925 598.9,436.925 Z" fill="#8E2620" stroke="#6E1D18" stroke-width="1"/><path d="M551.8,438.925 Q575.4,458.925 598.9,438.925" fill="none" stroke="#C9962E" stroke-width="2"/><path d="M598.9,436.925 Q622.5,456.925 646.0,436.925 Z" fill="#8E2620" stroke="#6E1D18" stroke-width="1"/><path d="M598.9,438.925 Q622.5,458.925 646.0,438.925" fill="none" stroke="#C9962E" stroke-width="2"/></g>
<rect x="128" y="424.925" width="518" height="192" fill="none" stroke="#2A211B" stroke-width="2"/>
<text x="387.0" y="646.9" font-family="Inter, sans-serif" font-size="15" font-weight="700" fill="#9B2C24" text-anchor="middle" letter-spacing="3.5">DISTRIBUȚIA</text>
<text x="140.0" y="669.9" font-family="'Noto Serif', serif" font-size="15" font-weight="400" fill="#2A211B" text-anchor="start" font-style="italic">Eroul principal</text>
<text x="634.0" y="669.9" font-family="Inter, sans-serif" font-size="15" font-weight="700" fill="#2A211B" text-anchor="end">Matei S.</text>
<line x1="253.1" y1="665.925" x2="566.6" y2="665.925" stroke="#5E5145" stroke-width="1.6" stroke-dasharray="1.2 5" stroke-linecap="round"/><text x="140.0" y="689.4" font-family="'Noto Serif', serif" font-size="15" font-weight="400" fill="#2A211B" text-anchor="start" font-style="italic">Regizoarea</text>
<text x="634.0" y="689.4" font-family="Inter, sans-serif" font-size="15" font-weight="700" fill="#2A211B" text-anchor="end">mama</text>
<line x1="226.0" y1="685.425" x2="581.2" y2="685.425" stroke="#5E5145" stroke-width="1.6" stroke-dasharray="1.2 5" stroke-linecap="round"/><text x="140.0" y="708.9" font-family="'Noto Serif', serif" font-size="15" font-weight="400" fill="#2A211B" text-anchor="start" font-style="italic">Maestrul de lumini și decoruri</text>
<text x="634.0" y="708.9" font-family="Inter, sans-serif" font-size="15" font-weight="700" fill="#2A211B" text-anchor="end">tata</text>
<line x1="359.1" y1="704.925" x2="597.4" y2="704.925" stroke="#5E5145" stroke-width="1.6" stroke-dasharray="1.2 5" stroke-linecap="round"/><text x="140.0" y="728.4" font-family="'Noto Serif', serif" font-size="15" font-weight="400" fill="#2A211B" text-anchor="start" font-style="italic">Sufleorul (știe toate replicile)</text>
<text x="634.0" y="728.4" font-family="Inter, sans-serif" font-size="15" font-weight="700" fill="#2A211B" text-anchor="end">bunica</text>
<line x1="348.5" y1="724.425" x2="576.1" y2="724.425" stroke="#5E5145" stroke-width="1.6" stroke-dasharray="1.2 5" stroke-linecap="round"/><text x="140.0" y="747.9" font-family="'Noto Serif', serif" font-size="15" font-weight="400" fill="#2A211B" text-anchor="start" font-style="italic">Publicul din primul rând</text>
<text x="634.0" y="747.9" font-family="Inter, sans-serif" font-size="15" font-weight="700" fill="#2A211B" text-anchor="end">sora mai mică</text>
<line x1="319.0" y1="743.925" x2="524.8" y2="743.925" stroke="#5E5145" stroke-width="1.6" stroke-dasharray="1.2 5" stroke-linecap="round"/><text x="140.0" y="767.4" font-family="'Noto Serif', serif" font-size="15" font-weight="400" fill="#2A211B" text-anchor="start" font-style="italic">Partenerul de scenă</text>
<text x="634.0" y="767.4" font-family="Inter, sans-serif" font-size="15" font-weight="700" fill="#2A211B" text-anchor="end">cel mai bun prieten</text>
<line x1="286.1" y1="763.425" x2="486.6" y2="763.425" stroke="#5E5145" stroke-width="1.6" stroke-dasharray="1.2 5" stroke-linecap="round"/><text x="140.0" y="786.9" font-family="'Noto Serif', serif" font-size="15" font-weight="400" fill="#2A211B" text-anchor="start" font-style="italic">Juriul care dă note</text>
<text x="634.0" y="786.9" font-family="Inter, sans-serif" font-size="15" font-weight="700" fill="#2A211B" text-anchor="end">profesorii</text>
<line x1="277.2" y1="782.925" x2="555.1" y2="782.925" stroke="#5E5145" stroke-width="1.6" stroke-dasharray="1.2 5" stroke-linecap="round"/><line x1="132" y1="800.425" x2="642" y2="800.425" stroke="#C9962E" stroke-width="1.4"/><text x="217.0" y="822.4" font-family="Inter, sans-serif" font-size="12" font-weight="700" fill="#9B2C24" text-anchor="middle" letter-spacing="2.5">ACTUL I</text>
<text x="217.0" y="845.4" font-family="'Noto Serif', serif" font-size="19" font-weight="700" fill="#2A211B" text-anchor="middle">Copilăria</text>
<text x="217.0" y="864.4" font-family="Inter, sans-serif" font-size="12.5" font-weight="400" fill="#5E5145" text-anchor="middle" font-style="italic">bicicleta, primele cărți,</text>
<text x="217.0" y="879.4" font-family="Inter, sans-serif" font-size="12.5" font-weight="400" fill="#5E5145" text-anchor="middle" font-style="italic">mii de întrebări</text>
<text x="387.0" y="822.4" font-family="Inter, sans-serif" font-size="12" font-weight="700" fill="#9B2C24" text-anchor="middle" letter-spacing="2.5">ACTUL II</text>
<text x="387.0" y="845.4" font-family="'Noto Serif', serif" font-size="19" font-weight="700" fill="#2A211B" text-anchor="middle">Liceul</text>
<text x="387.0" y="864.4" font-family="Inter, sans-serif" font-size="12.5" font-weight="400" fill="#5E5145" text-anchor="middle" font-style="italic">prieteni, emoții, prima</text>
<text x="387.0" y="879.4" font-family="Inter, sans-serif" font-size="12.5" font-weight="400" fill="#5E5145" text-anchor="middle" font-style="italic">trupă de muzică</text>
<line x1="302.0" y1="810.425" x2="302.0" y2="882.425" stroke="#E3D4B6" stroke-width="1.6"/><text x="557.0" y="822.4" font-family="Inter, sans-serif" font-size="12" font-weight="700" fill="#9B2C24" text-anchor="middle" letter-spacing="2.5">ACTUL III</text>
<text x="557.0" y="845.4" font-family="'Noto Serif', serif" font-size="19" font-weight="700" fill="#2A211B" text-anchor="middle">Visurile</text>
<text x="557.0" y="864.4" font-family="Inter, sans-serif" font-size="12.5" font-weight="400" fill="#5E5145" text-anchor="middle" font-style="italic">în repetiție, cu final</text>
<text x="557.0" y="879.4" font-family="Inter, sans-serif" font-size="12.5" font-weight="400" fill="#5E5145" text-anchor="middle" font-style="italic">deschis</text>
<line x1="472.0" y1="810.425" x2="472.0" y2="882.425" stroke="#E3D4B6" stroke-width="1.6"/><rect x="116" y="910" width="542" height="74" fill="#9B2C24"/><text x="387.0" y="939.0" font-family="'Noto Serif', serif" font-size="19" font-weight="700" fill="#FBF3E2" text-anchor="middle">SCENA: Podul Minciunilor, Sibiu</text>
<text x="387.0" y="962.0" font-family="Inter, sans-serif" font-size="14.5" font-weight="500" fill="#F2D9B8" text-anchor="middle">în fiecare zi, de la 7:30 · intrarea liberă · durata: o viață</text>
<text x="387.0" y="978.0" font-family="Inter, sans-serif" font-size="11" font-weight="400" fill="#F2D9B8" text-anchor="middle" font-style="italic">Afiș imaginar: Matei S. (16 ani) e un personaj fictiv, iar spectacolul nu există.</text>
<rect x="724" y="236" width="546" height="768" rx="22" fill="#0D3A40" stroke="#0E7C86" stroke-width="1.6"/><rect x="724" y="236" width="546" height="7" rx="3.5" fill="#0E7C86"/>
<text x="752.0" y="286.0" font-family="'Noto Serif', serif" font-size="27" font-weight="700" fill="#F3EFE6" text-anchor="start">Cum îți faci afișul</text>
<text x="1244.0" y="286.0" font-family="Inter, sans-serif" font-size="15" font-weight="400" fill="#9CC9CD" text-anchor="end" font-style="italic">în 5 pași</text>
<circle cx="770" cy="324" r="17" fill="#0E7C86"/><text x="770.0" y="331.0" font-family="Inter, sans-serif" font-size="18" font-weight="700" fill="#F3EFE6" text-anchor="middle">1</text>
<text x="802.0" y="332.0" font-family="'Noto Serif', serif" font-size="21" font-weight="700" fill="#F3EFE6" text-anchor="start">Titlul</text>
<text x="802.0" y="360.0" font-family="Inter, sans-serif" font-size="17" font-weight="400" fill="#D6E6E8" text-anchor="start">Cere AI-ului zece titluri pentru „piesa” vieții tale, apoi</text>
<text x="802.0" y="383.0" font-family="Inter, sans-serif" font-size="17" font-weight="400" fill="#D6E6E8" text-anchor="start">alege unul și rescrie-l cu vorbele tale.</text>
<circle cx="770" cy="412" r="17" fill="#0E7C86"/><text x="770.0" y="419.0" font-family="Inter, sans-serif" font-size="18" font-weight="700" fill="#F3EFE6" text-anchor="middle">2</text>
<text x="802.0" y="420.0" font-family="'Noto Serif', serif" font-size="21" font-weight="700" fill="#F3EFE6" text-anchor="start">Distribuția</text>
<text x="802.0" y="448.0" font-family="Inter, sans-serif" font-size="17" font-weight="400" fill="#D6E6E8" text-anchor="start">Oamenii importanți devin roluri: mama – regizoarea,</text>
<text x="802.0" y="471.0" font-family="Inter, sans-serif" font-size="17" font-weight="400" fill="#D6E6E8" text-anchor="start">prietenul – partenerul de scenă. Fără nume reale.</text>
<circle cx="770" cy="500" r="17" fill="#0E7C86"/><text x="770.0" y="507.0" font-family="Inter, sans-serif" font-size="18" font-weight="700" fill="#F3EFE6" text-anchor="middle">3</text>
<text x="802.0" y="508.0" font-family="'Noto Serif', serif" font-size="21" font-weight="700" fill="#F3EFE6" text-anchor="start">Actele</text>
<text x="802.0" y="536.0" font-family="Inter, sans-serif" font-size="17" font-weight="400" fill="#D6E6E8" text-anchor="start">Împarte povestea în trei acte – copilăria, liceul, visurile.</text>
<text x="802.0" y="559.0" font-family="Inter, sans-serif" font-size="17" font-weight="400" fill="#D6E6E8" text-anchor="start">Ultimul act poate rămâne deschis.</text>
<circle cx="770" cy="588" r="17" fill="#0E7C86"/><text x="770.0" y="595.0" font-family="Inter, sans-serif" font-size="18" font-weight="700" fill="#F3EFE6" text-anchor="middle">4</text>
<text x="802.0" y="596.0" font-family="'Noto Serif', serif" font-size="21" font-weight="700" fill="#F3EFE6" text-anchor="start">Decorul</text>
<text x="802.0" y="624.0" font-family="Inter, sans-serif" font-size="17" font-weight="400" fill="#D6E6E8" text-anchor="start">Alege un loc din Sibiu care contează pentru tine și</text>
<text x="802.0" y="647.0" font-family="Inter, sans-serif" font-size="17" font-weight="400" fill="#D6E6E8" text-anchor="start">verifică un fapt despre el în surse sigure.</text>
<circle cx="770" cy="676" r="17" fill="#0E7C86"/><text x="770.0" y="683.0" font-family="Inter, sans-serif" font-size="18" font-weight="700" fill="#F3EFE6" text-anchor="middle">5</text>
<text x="802.0" y="684.0" font-family="'Noto Serif', serif" font-size="21" font-weight="700" fill="#F3EFE6" text-anchor="start">Compoziția</text>
<text x="802.0" y="712.0" font-family="Inter, sans-serif" font-size="17" font-weight="400" fill="#D6E6E8" text-anchor="start">Titlul mare sus, imaginea în centru, informațiile mici</text>
<text x="802.0" y="735.0" font-family="Inter, sans-serif" font-size="17" font-weight="400" fill="#D6E6E8" text-anchor="start">jos. Privește afișul de la 3 metri: se citește titlul?</text>
<rect x="748" y="808" width="498" height="172" rx="14" fill="#0A2E33" stroke="#1F6B72" stroke-width="1.4" stroke-dasharray="6 5"/><text x="770.0" y="844.0" font-family="Inter, sans-serif" font-size="14" font-weight="700" fill="#E2A62B" text-anchor="start" letter-spacing="2.5">EXEMPLU DE CERERE PENTRU AI</text>
<text x="770.0" y="874.0" font-family="'Noto Serif', serif" font-size="16.5" font-weight="400" fill="#F3EFE6" text-anchor="start" font-style="italic">„Sunt un elev de 16 ani din Sibiu. Propune zece titluri</text>
<text x="770.0" y="897.0" font-family="'Noto Serif', serif" font-size="16.5" font-weight="400" fill="#F3EFE6" text-anchor="start" font-style="italic">amuzante pentru o piesă de teatru despre viața mea, în trei</text>
<text x="770.0" y="920.0" font-family="'Noto Serif', serif" font-size="16.5" font-weight="400" fill="#F3EFE6" text-anchor="start" font-style="italic">acte, cu decorul pe Podul Minciunilor.”</text>
<text x="770.0" y="960.0" font-family="Inter, sans-serif" font-size="15.5" font-weight="600" fill="#9CC9CD" text-anchor="start">AI-ul propune, tu alegi: afișul rămâne al tău.</text>
<rect x="1290" y="236" width="550" height="440" rx="22" fill="#1B2733" stroke="#2A3845" stroke-width="1.5" />
<rect x="1290" y="236" width="550" height="7" rx="3.5" fill="#F76B15"/>
<text x="1316.0" y="284.0" font-family="'Noto Serif', serif" font-size="25" font-weight="700" fill="#F3EFE6" text-anchor="start">Despre afișele de teatru</text>
<circle cx="1322" cy="318" r="4" fill="#E2A62B"/><text x="1338.0" y="324.0" font-family="Inter, sans-serif" font-size="16.5" font-weight="400" fill="#F3EFE6" text-anchor="start">Un afiș îmbină de regulă text și imagine: e gândit să atragă</text>
<text x="1338.0" y="346.0" font-family="Inter, sans-serif" font-size="16.5" font-weight="400" fill="#F3EFE6" text-anchor="start">privirea și, în același timp, să informeze.</text>
<circle cx="1322" cy="371" r="4" fill="#E2A62B"/><text x="1338.0" y="377.0" font-family="Inter, sans-serif" font-size="16.5" font-weight="400" fill="#F3EFE6" text-anchor="start">Afișe doar cu text au anunțat, vreme de secole, piesele lui</text>
<text x="1338.0" y="399.0" font-family="Inter, sans-serif" font-size="16.5" font-weight="400" fill="#F3EFE6" text-anchor="start">Shakespeare.</text>
<circle cx="1322" cy="424" r="4" fill="#E2A62B"/><text x="1338.0" y="430.0" font-family="Inter, sans-serif" font-size="16.5" font-weight="400" fill="#F3EFE6" text-anchor="start">Afișul modern apare în anii 1840–1850, când tiparul</text>
<text x="1338.0" y="452.0" font-family="Inter, sans-serif" font-size="16.5" font-weight="400" fill="#F3EFE6" text-anchor="start">perfecționează litografia color (inventată în 1796 de Alois</text>
<text x="1338.0" y="474.0" font-family="Inter, sans-serif" font-size="16.5" font-weight="400" fill="#F3EFE6" text-anchor="start">Senefelder).</text>
<circle cx="1322" cy="499" r="4" fill="#E2A62B"/><text x="1338.0" y="505.0" font-family="Inter, sans-serif" font-size="16.5" font-weight="400" fill="#F3EFE6" text-anchor="start">La sfârșitul secolului al XIX-lea, unele vedete ale teatrului își</text>
<text x="1338.0" y="527.0" font-family="Inter, sans-serif" font-size="16.5" font-weight="400" fill="#F3EFE6" text-anchor="start">alegeau singure artistul care le desena afișul.</text>
<circle cx="1322" cy="552" r="4" fill="#E2A62B"/><text x="1338.0" y="558.0" font-family="Inter, sans-serif" font-size="16.5" font-weight="400" fill="#F3EFE6" text-anchor="start">Programul de sală – de exemplu revista americană Playbill,</text>
<text x="1338.0" y="580.0" font-family="Inter, sans-serif" font-size="16.5" font-weight="400" fill="#F3EFE6" text-anchor="start">din 1884 – cuprinde distribuția, lista scenelor, decorul și</text>
<text x="1338.0" y="602.0" font-family="Inter, sans-serif" font-size="16.5" font-weight="400" fill="#F3EFE6" text-anchor="start">numărul de pauze.</text>
<text x="1316.0" y="656.0" font-family="Inter, sans-serif" font-size="13" font-weight="400" fill="#7E8A96" text-anchor="start" font-style="italic">Sursa: en.wikipedia, „Poster” și „Playbill” (formulări prudente)</text>
<rect x="1290" y="694" width="550" height="310" rx="22" fill="#141E28" stroke="#F76B15" stroke-width="1.8"/>
<text x="1316.0" y="738.0" font-family="'Noto Serif', serif" font-size="23" font-weight="700" fill="#F3EFE6" text-anchor="start">Decorul ales: Podul Minciunilor</text>
<circle cx="1322" cy="764" r="4" fill="#E2A62B"/><text x="1338.0" y="770.0" font-family="Inter, sans-serif" font-size="15.5" font-weight="400" fill="#F3EFE6" text-anchor="start">Terminat în 1859, inaugurat la 17 decembrie 1860: primul pod din</text>
<text x="1338.0" y="790.0" font-family="Inter, sans-serif" font-size="15.5" font-weight="400" fill="#F3EFE6" text-anchor="start">fontă din România, între Orașul de Sus și Orașul de Jos.</text>
<circle cx="1322" cy="810" r="4" fill="#E2A62B"/><text x="1338.0" y="816.0" font-family="Inter, sans-serif" font-size="15.5" font-weight="400" fill="#F3EFE6" text-anchor="start">Pe pod se văd inscripțiile „1859” și „FRIEDRICHSHÜTTE”.</text>
<circle cx="1322" cy="836" r="4" fill="#E2A62B"/><text x="1338.0" y="842.0" font-family="Inter, sans-serif" font-size="15.5" font-weight="400" fill="#F3EFE6" text-anchor="start">Legenda spune că se prăbușește dacă cineva minte pe el – de</text>
<text x="1338.0" y="862.0" font-family="Inter, sans-serif" font-size="15.5" font-weight="400" fill="#F3EFE6" text-anchor="start">aici titlul piesei.</text>
<circle cx="1322" cy="882" r="4" fill="#E2A62B"/><text x="1338.0" y="888.0" font-family="Inter, sans-serif" font-size="15.5" font-weight="400" fill="#F3EFE6" text-anchor="start">Tot aici: Sala Thalia (1787–1788), prima clădire de teatru din țară.</text>
<text x="1316.0" y="958.0" font-family="Inter, sans-serif" font-size="15" font-weight="700" fill="#E2A62B" text-anchor="start">Inventate: Matei S., titlul, distribuția, actele și orele.</text>
<text x="1316.0" y="984.0" font-family="Inter, sans-serif" font-size="13" font-weight="400" fill="#7E8A96" text-anchor="start" font-style="italic">Fapte: fișa proiectului (patrimoniu.sibiu.ro; en.wikipedia, „Thalia Hall”)</text>
<line x1="80" y1="1026" x2="1840" y2="1026" stroke="#1B2733" stroke-width="2"/>
<text x="80.0" y="1056.0" font-family="Inter, sans-serif" font-size="22" font-weight="400" fill="#A9B4C0" text-anchor="start">ACTIV AI · Sibiul meu · Artefact-model generat cu AI</text>
<text x="1840.0" y="1056.0" font-family="Inter, sans-serif" font-size="22" font-weight="600" fill="#E2A62B" text-anchor="end">#SibiulMeu</text>
</svg>
