<svg xmlns="http://www.w3.org/2000/svg" width="1920" height="1080" viewBox="0 0 1920 1080">
<defs>
<filter id="sh" x="-20%" y="-20%" width="140%" height="150%">
  <feGaussianBlur in="SourceAlpha" stdDeviation="7"/><feOffset dy="6" result="o"/>
  <feComponentTransfer><feFuncA type="linear" slope="0.45"/></feComponentTransfer>
  <feMerge><feMergeNode/><feMergeNode in="SourceGraphic"/></feMerge>
</filter>
<filter id="shs" x="-30%" y="-30%" width="160%" height="170%">
  <feGaussianBlur in="SourceAlpha" stdDeviation="3"/><feOffset dy="3" result="o"/>
  <feComponentTransfer><feFuncA type="linear" slope="0.5"/></feComponentTransfer>
  <feMerge><feMergeNode/><feMergeNode in="SourceGraphic"/></feMerge>
</filter>
<filter id="glow" x="-100%" y="-100%" width="300%" height="300%">
  <feGaussianBlur stdDeviation="6" result="b"/>
  <feMerge><feMergeNode in="b"/><feMergeNode in="SourceGraphic"/></feMerge>
</filter>
<filter id="paper" x="0" y="0" width="100%" height="100%">
  <feTurbulence type="fractalNoise" baseFrequency="0.9" numOctaves="2" seed="7" result="n"/>
  <feColorMatrix in="n" type="matrix" values="0 0 0 0 0.45  0 0 0 0 0.38  0 0 0 0 0.28  0 0 0 0.10 0" result="nc"/>
  <feComposite in="nc" in2="SourceGraphic" operator="in" result="t"/>
  <feMerge><feMergeNode in="SourceGraphic"/><feMergeNode in="t"/></feMerge>
</filter>
<filter id="rough" x="-5%" y="-5%" width="110%" height="110%">
  <feTurbulence type="fractalNoise" baseFrequency="0.035" numOctaves="2" seed="3" result="n"/>
  <feDisplacementMap in="SourceGraphic" in2="n" scale="4" xChannelSelector="R" yChannelSelector="G"/>
</filter>
<filter id="blur8" x="-50%" y="-50%" width="200%" height="200%"><feGaussianBlur stdDeviation="8"/></filter>
<filter id="blur3" x="-50%" y="-50%" width="200%" height="200%"><feGaussianBlur stdDeviation="2.5"/></filter>
</defs>
<rect width="1920" height="1080" fill="#0F1720"/>
<g transform="translate(80,70)">
<rect x="0" y="0" rx="22" ry="22" width="245" height="44" fill="#F76B15"/>
<text x="122.5" y="30" text-anchor="middle" font-family="Inter, sans-serif" font-weight="700" font-size="20" letter-spacing="2" fill="#0F1720">IDENTITATE · P21</text>
<text x="0" y="120" font-family="'Noto Serif', serif" font-weight="700" font-size="60" fill="#F3EFE6">Playlistul meu sibian</text>
</g>
<text x="1840.0" y="100.0" font-family="Inter, sans-serif" font-size="24" font-weight="400" fill="#A9B4C0" text-anchor="end" font-style="italic">personaj fictiv · piese imaginare, nu există înregistrări</text>
<text x="738.9" y="190.0" font-family="'Noto Serif', serif" font-size="30" font-weight="400" fill="#A9B4C0" text-anchor="start" font-style="italic">— copertă de album AI și 10 piese imaginare</text>
<defs><linearGradient id="dusk21" x1="0" y1="0" x2="0" y2="1"><stop offset="0" stop-color="#2A1F5C"/><stop offset="0.45" stop-color="#6E56CF"/><stop offset="0.78" stop-color="#C8708A"/><stop offset="1" stop-color="#E2A62B"/></linearGradient><linearGradient id="roof21" x1="0" y1="0" x2="0" y2="1"><stop offset="0" stop-color="#C9663F"/><stop offset="1" stop-color="#8E3F2A"/></linearGradient><linearGradient id="band21" x1="0" y1="0" x2="1" y2="0"><stop offset="0" stop-color="#2B3440"/><stop offset="0.5" stop-color="#3B4654"/><stop offset="1" stop-color="#2B3440"/></linearGradient><radialGradient id="cup21" cx="0.4" cy="0.35" r="0.7"><stop offset="0" stop-color="#4A5666"/><stop offset="1" stop-color="#1B2733"/></radialGradient><radialGradient id="vinyl21" cx="0.5" cy="0.5" r="0.5"><stop offset="0" stop-color="#20262E"/><stop offset="0.6" stop-color="#11161B"/><stop offset="1" stop-color="#0A0D10"/></radialGradient><clipPath id="cv21"><rect x="92" y="244" width="520" height="520" rx="6"/></clipPath></defs>
<g filter="url(#sh)"><circle cx="580" cy="504.0" r="190.0" fill="url(#vinyl21)"/></g><circle cx="580" cy="504.0" r="76.0" fill="none" stroke="#3A444F" stroke-width="0.8" opacity="0.35"/><circle cx="580" cy="504.0" r="84.0" fill="none" stroke="#3A444F" stroke-width="0.8" opacity="0.38"/><circle cx="580" cy="504.0" r="92.0" fill="none" stroke="#3A444F" stroke-width="0.8" opacity="0.41"/><circle cx="580" cy="504.0" r="99.9" fill="none" stroke="#3A444F" stroke-width="0.8" opacity="0.44"/><circle cx="580" cy="504.0" r="107.9" fill="none" stroke="#3A444F" stroke-width="0.8" opacity="0.47"/><circle cx="580" cy="504.0" r="115.9" fill="none" stroke="#3A444F" stroke-width="0.8" opacity="0.50"/><circle cx="580" cy="504.0" r="123.9" fill="none" stroke="#3A444F" stroke-width="0.8" opacity="0.53"/><circle cx="580" cy="504.0" r="131.9" fill="none" stroke="#3A444F" stroke-width="0.8" opacity="0.56"/><circle cx="580" cy="504.0" r="139.8" fill="none" stroke="#3A444F" stroke-width="0.8" opacity="0.59"/><circle cx="580" cy="504.0" r="147.8" fill="none" stroke="#3A444F" stroke-width="0.8" opacity="0.62"/><circle cx="580" cy="504.0" r="155.8" fill="none" stroke="#3A444F" stroke-width="0.8" opacity="0.65"/><circle cx="580" cy="504.0" r="163.8" fill="none" stroke="#3A444F" stroke-width="0.8" opacity="0.68"/><circle cx="580" cy="504.0" r="171.8" fill="none" stroke="#3A444F" stroke-width="0.8" opacity="0.71"/><circle cx="580" cy="504.0" r="179.7" fill="none" stroke="#3A444F" stroke-width="0.8" opacity="0.74"/><path d="M646.5,361.5 A157.7,157.7 0 0 1 732.0,469.8" fill="none" stroke="#FFFFFF" stroke-width="3" opacity="0.10"/><circle cx="580" cy="504.0" r="60.8" fill="#E2A62B"/><text x="627.0" y="513.0" font-family="'Noto Serif', serif" font-size="24" font-weight="700" fill="#2A1F5C" text-anchor="middle">A</text>
<g filter="url(#sh)"><rect x="92" y="244" width="520" height="520" rx="6" fill="#2A1F5C"/></g>
<g clip-path="url(#cv21)"><rect x="92" y="244" width="520" height="520" fill="url(#dusk21)"/><circle cx="184.5" cy="435.0" r="1.6" fill="#F3EFE6" opacity="0.54"/><circle cx="210.0" cy="444.1" r="1.8" fill="#F3EFE6" opacity="0.56"/><circle cx="354.5" cy="394.9" r="0.8" fill="#F3EFE6" opacity="0.49"/><circle cx="394.7" cy="380.1" r="1.8" fill="#F3EFE6" opacity="0.42"/><circle cx="218.3" cy="377.7" r="2.0" fill="#F3EFE6" opacity="0.67"/><circle cx="539.5" cy="428.4" r="0.8" fill="#F3EFE6" opacity="0.46"/><circle cx="350.8" cy="384.2" r="1.9" fill="#F3EFE6" opacity="0.48"/><circle cx="179.4" cy="446.3" r="0.9" fill="#F3EFE6" opacity="0.76"/><circle cx="328.6" cy="422.8" r="1.2" fill="#F3EFE6" opacity="0.54"/><circle cx="195.5" cy="377.3" r="1.8" fill="#F3EFE6" opacity="0.42"/><circle cx="492.1" cy="392.4" r="2.0" fill="#F3EFE6" opacity="0.75"/><circle cx="479.4" cy="441.4" r="1.5" fill="#F3EFE6" opacity="0.66"/><circle cx="163.2" cy="416.1" r="1.8" fill="#F3EFE6" opacity="0.40"/><circle cx="563.6" cy="452.5" r="1.3" fill="#F3EFE6" opacity="0.48"/><circle cx="327.7" cy="408.1" r="2.0" fill="#F3EFE6" opacity="0.49"/><circle cx="115.4" cy="382.2" r="1.7" fill="#F3EFE6" opacity="0.80"/><circle cx="350.0" cy="417.5" r="1.5" fill="#F3EFE6" opacity="0.67"/><circle cx="213.0" cy="427.8" r="1.5" fill="#F3EFE6" opacity="0.61"/><circle cx="192.3" cy="389.0" r="1.2" fill="#F3EFE6" opacity="0.76"/><circle cx="275.3" cy="426.8" r="1.2" fill="#F3EFE6" opacity="0.35"/><circle cx="134.8" cy="445.9" r="1.7" fill="#F3EFE6" opacity="0.49"/><circle cx="443.7" cy="433.7" r="1.9" fill="#F3EFE6" opacity="0.78"/><circle cx="305.5" cy="461.4" r="2.0" fill="#F3EFE6" opacity="0.60"/><circle cx="543.6" cy="417.4" r="1.3" fill="#F3EFE6" opacity="0.42"/><circle cx="540.1" cy="388.3" r="0.9" fill="#F3EFE6" opacity="0.70"/><circle cx="489.0" cy="416.7" r="1.8" fill="#F3EFE6" opacity="0.33"/><circle cx="231.0" cy="399.6" r="1.3" fill="#F3EFE6" opacity="0.39"/><circle cx="136.7" cy="403.9" r="1.9" fill="#F3EFE6" opacity="0.79"/><circle cx="474.9" cy="416.3" r="1.1" fill="#F3EFE6" opacity="0.78"/><circle cx="364.8" cy="438.4" r="0.8" fill="#F3EFE6" opacity="0.41"/><circle cx="521.1" cy="444.3" r="1.9" fill="#F3EFE6" opacity="0.60"/><circle cx="315.0" cy="425.4" r="1.8" fill="#F3EFE6" opacity="0.45"/><circle cx="369.2" cy="398.4" r="1.7" fill="#F3EFE6" opacity="0.31"/><circle cx="444.6" cy="458.3" r="0.8" fill="#F3EFE6" opacity="0.60"/><rect x="169.0" y="496.0" width="30.0" height="112.0" fill="#3B2C78" stroke="#2A1F5C" stroke-width="1.2"/><path d="M176.2,608.0 V594.1 A7.8,7.8 0 0 1 191.8,594.1 V608.0 Z" fill="#F2C46B" stroke="#2A1F5C" stroke-width="1.0"/><rect x="167.2" y="498.2" width="33.6" height="17.9" fill="#3B2C78" stroke="#2A1F5C" stroke-width="1.2"/><path d="M170.8,513.5 V505.8 A2.4,2.4 0 0 1 175.6,505.8 V513.5 Z" fill="#F2C46B"/><path d="M181.6,513.5 V505.8 A2.4,2.4 0 0 1 186.4,505.8 V513.5 Z" fill="#F2C46B"/><path d="M192.4,513.5 V505.8 A2.4,2.4 0 0 1 197.2,505.8 V513.5 Z" fill="#F2C46B"/><polygon points="166.0,498.2 184.0,436.6 202.0,498.2" fill="#3B2C78" stroke="#2A1F5C" stroke-width="1.2" stroke-linejoin="round"/><line x1="184.0" y1="436.6" x2="184.0" y2="498.2" stroke="#2A1F5C" stroke-width="0.6" opacity="0.45"/><rect x="165.4" y="491.0" width="6.0" height="7.2" fill="#3B2C78" stroke="#2A1F5C" stroke-width="1.0"/><polygon points="164.4,491.0 168.4,468.5 172.4,491.0" fill="#3B2C78" stroke="#2A1F5C" stroke-width="1.0" stroke-linejoin="round"/><rect x="196.6" y="491.0" width="6.0" height="7.2" fill="#3B2C78" stroke="#2A1F5C" stroke-width="1.0"/><polygon points="195.6,491.0 199.6,468.5 203.6,491.0" fill="#3B2C78" stroke="#2A1F5C" stroke-width="1.0" stroke-linejoin="round"/><line x1="184.0" y1="436.6" x2="184.0" y2="428.8" stroke="#2A1F5C" stroke-width="1.2"/><circle cx="184.0" cy="432.7" r="1.6" fill="#2A1F5C"/>
<rect x="82.0" y="568.0" width="70.0" height="40.0" fill="#3B2C78" stroke="#2A1F5C" stroke-width="1.2"/><rect x="111.4" y="574.4" width="11.2" height="13.6" fill="#F2C46B" stroke="#2A1F5C" stroke-width="0.7"/><polygon points="77.8,568.0 96.0,504.0 138.0,504.0 156.2,568.0" fill="#3B2C78" stroke="#2A1F5C" stroke-width="1.2" stroke-linejoin="round"/><path d="M106.5,542.4 C110.7,534.1 123.3,534.1 127.5,542.4 Z" fill="#3B2C78" stroke="#2A1F5C" stroke-width="1.2" stroke-linejoin="round"/><path d="M110.5,542.4 C113.4,537.5 120.6,537.5 123.5,542.4 Z" fill="#F2C46B" stroke="#2A1F5C" stroke-width="0.8"/>

<rect x="212.0" y="572.0" width="64.0" height="36.0" fill="#3B2C78" stroke="#2A1F5C" stroke-width="1.2"/><rect x="238.9" y="577.8" width="10.2" height="12.2" fill="#F2C46B" stroke="#2A1F5C" stroke-width="0.7"/><polygon points="208.2,572.0 244.0,502.0 279.8,572.0" fill="#3B2C78" stroke="#2A1F5C" stroke-width="1.2" stroke-linejoin="round"/><path d="M234.4,544.0 C238.2,536.4 249.8,536.4 253.6,544.0 Z" fill="#3B2C78" stroke="#2A1F5C" stroke-width="1.2" stroke-linejoin="round"/><path d="M238.0,544.0 C240.7,539.5 247.3,539.5 250.0,544.0 Z" fill="#F2C46B" stroke="#2A1F5C" stroke-width="0.8"/>

<rect x="426.0" y="568.0" width="66.0" height="40.0" fill="#3B2C78" stroke="#2A1F5C" stroke-width="1.2"/><rect x="453.7" y="574.4" width="10.6" height="13.6" fill="#F2C46B" stroke="#2A1F5C" stroke-width="0.7"/><polygon points="422.0,568.0 459.0,510.0 496.0,568.0" fill="#3B2C78" stroke="#2A1F5C" stroke-width="1.2" stroke-linejoin="round"/><path d="M449.1,544.8 C453.1,537.0 464.9,537.0 468.9,544.8 Z" fill="#3B2C78" stroke="#2A1F5C" stroke-width="1.2" stroke-linejoin="round"/><path d="M452.9,544.8 C455.6,540.2 462.4,540.2 465.1,544.8 Z" fill="#F2C46B" stroke="#2A1F5C" stroke-width="0.8"/>

<rect x="484.0" y="564.0" width="76.0" height="44.0" fill="#3B2C78" stroke="#2A1F5C" stroke-width="1.2"/><rect x="515.9" y="571.0" width="12.2" height="15.0" fill="#F2C46B" stroke="#2A1F5C" stroke-width="0.7"/><polygon points="479.4,564.0 499.2,486.0 544.8,486.0 564.6,564.0" fill="#3B2C78" stroke="#2A1F5C" stroke-width="1.2" stroke-linejoin="round"/><path d="M510.6,532.8 C515.2,523.8 528.8,523.8 533.4,532.8 Z" fill="#3B2C78" stroke="#2A1F5C" stroke-width="1.2" stroke-linejoin="round"/><path d="M514.9,532.8 C518.1,527.5 525.9,527.5 529.1,532.8 Z" fill="#F2C46B" stroke="#2A1F5C" stroke-width="0.8"/>

<rect x="562.0" y="570.0" width="70.0" height="38.0" fill="#3B2C78" stroke="#2A1F5C" stroke-width="1.2"/><rect x="591.4" y="576.1" width="11.2" height="12.9" fill="#F2C46B" stroke="#2A1F5C" stroke-width="0.7"/><polygon points="557.8,570.0 576.0,510.0 618.0,510.0 636.2,570.0" fill="#3B2C78" stroke="#2A1F5C" stroke-width="1.2" stroke-linejoin="round"/><path d="M586.5,546.0 C590.7,537.7 603.3,537.7 607.5,546.0 Z" fill="#3B2C78" stroke="#2A1F5C" stroke-width="1.2" stroke-linejoin="round"/><path d="M590.5,546.0 C593.4,541.1 600.6,541.1 603.5,546.0 Z" fill="#F2C46B" stroke="#2A1F5C" stroke-width="0.8"/>

<rect x="369" y="488.0" width="26" height="120" fill="#3B2C78" stroke="#2A1F5C" stroke-width="1.2"/><polygon points="365.0,488.0 382.0,412.0 399.0,488.0" fill="#3B2C78" stroke="#2A1F5C" stroke-width="1.2"/><rect x="378" y="504.0" width="8" height="14" rx="4" fill="#F2C46B"/><polygon points="118.0,768.0 240.0,452.0 464.0,452.0 586.0,768.0" fill="url(#roof21)" stroke="#5A2216" stroke-width="2.5" stroke-linejoin="round"/><path d="M227.3,484.9 q13.9,9.0 27.7,0 q13.9,9.0 27.7,0 q13.9,9.0 27.7,0 q13.9,9.0 27.7,0 q13.9,9.0 27.7,0 q13.9,9.0 27.7,0 q13.9,9.0 27.7,0 q13.9,9.0 27.7,0 q13.9,9.0 27.7,0" fill="none" stroke="#6E2A1A" stroke-width="1.6" opacity="0.55"/><path d="M214.6,517.8 q13.7,9.0 27.5,0 q13.7,9.0 27.5,0 q13.7,9.0 27.5,0 q13.7,9.0 27.5,0 q13.7,9.0 27.5,0 q13.7,9.0 27.5,0 q13.7,9.0 27.5,0 q13.7,9.0 27.5,0 q13.7,9.0 27.5,0 q13.7,9.0 27.5,0" fill="none" stroke="#6E2A1A" stroke-width="1.6" opacity="0.55"/><path d="M201.9,550.8 q13.6,9.0 27.3,0 q13.6,9.0 27.3,0 q13.6,9.0 27.3,0 q13.6,9.0 27.3,0 q13.6,9.0 27.3,0 q13.6,9.0 27.3,0 q13.6,9.0 27.3,0 q13.6,9.0 27.3,0 q13.6,9.0 27.3,0 q13.6,9.0 27.3,0 q13.6,9.0 27.3,0" fill="none" stroke="#6E2A1A" stroke-width="1.6" opacity="0.55"/><path d="M189.2,583.7 q13.6,9.0 27.1,0 q13.6,9.0 27.1,0 q13.6,9.0 27.1,0 q13.6,9.0 27.1,0 q13.6,9.0 27.1,0 q13.6,9.0 27.1,0 q13.6,9.0 27.1,0 q13.6,9.0 27.1,0 q13.6,9.0 27.1,0 q13.6,9.0 27.1,0 q13.6,9.0 27.1,0 q13.6,9.0 27.1,0" fill="none" stroke="#6E2A1A" stroke-width="1.6" opacity="0.55"/><path d="M176.5,616.6 q13.5,9.0 27.0,0 q13.5,9.0 27.0,0 q13.5,9.0 27.0,0 q13.5,9.0 27.0,0 q13.5,9.0 27.0,0 q13.5,9.0 27.0,0 q13.5,9.0 27.0,0 q13.5,9.0 27.0,0 q13.5,9.0 27.0,0 q13.5,9.0 27.0,0 q13.5,9.0 27.0,0 q13.5,9.0 27.0,0 q13.5,9.0 27.0,0" fill="none" stroke="#6E2A1A" stroke-width="1.6" opacity="0.55"/><path d="M163.8,649.5 q13.4,9.0 26.9,0 q13.4,9.0 26.9,0 q13.4,9.0 26.9,0 q13.4,9.0 26.9,0 q13.4,9.0 26.9,0 q13.4,9.0 26.9,0 q13.4,9.0 26.9,0 q13.4,9.0 26.9,0 q13.4,9.0 26.9,0 q13.4,9.0 26.9,0 q13.4,9.0 26.9,0 q13.4,9.0 26.9,0 q13.4,9.0 26.9,0 q13.4,9.0 26.9,0" fill="none" stroke="#6E2A1A" stroke-width="1.6" opacity="0.55"/><path d="M151.0,682.4 q13.4,9.0 26.8,0 q13.4,9.0 26.8,0 q13.4,9.0 26.8,0 q13.4,9.0 26.8,0 q13.4,9.0 26.8,0 q13.4,9.0 26.8,0 q13.4,9.0 26.8,0 q13.4,9.0 26.8,0 q13.4,9.0 26.8,0 q13.4,9.0 26.8,0 q13.4,9.0 26.8,0 q13.4,9.0 26.8,0 q13.4,9.0 26.8,0 q13.4,9.0 26.8,0 q13.4,9.0 26.8,0" fill="none" stroke="#6E2A1A" stroke-width="1.6" opacity="0.55"/><path d="M138.3,715.3 q13.4,9.0 26.7,0 q13.4,9.0 26.7,0 q13.4,9.0 26.7,0 q13.4,9.0 26.7,0 q13.4,9.0 26.7,0 q13.4,9.0 26.7,0 q13.4,9.0 26.7,0 q13.4,9.0 26.7,0 q13.4,9.0 26.7,0 q13.4,9.0 26.7,0 q13.4,9.0 26.7,0 q13.4,9.0 26.7,0 q13.4,9.0 26.7,0 q13.4,9.0 26.7,0 q13.4,9.0 26.7,0 q13.4,9.0 26.7,0" fill="none" stroke="#6E2A1A" stroke-width="1.6" opacity="0.55"/><path d="M125.6,748.2 q13.3,9.0 26.6,0 q13.3,9.0 26.6,0 q13.3,9.0 26.6,0 q13.3,9.0 26.6,0 q13.3,9.0 26.6,0 q13.3,9.0 26.6,0 q13.3,9.0 26.6,0 q13.3,9.0 26.6,0 q13.3,9.0 26.6,0 q13.3,9.0 26.6,0 q13.3,9.0 26.6,0 q13.3,9.0 26.6,0 q13.3,9.0 26.6,0 q13.3,9.0 26.6,0 q13.3,9.0 26.6,0 q13.3,9.0 26.6,0 q13.3,9.0 26.6,0" fill="none" stroke="#6E2A1A" stroke-width="1.6" opacity="0.55"/><path d="M202.0,608.0 C228.4,549.9 307.6,549.9 334.0,608.0 Z" fill="#B65536" stroke="#5A2216" stroke-width="2.6" stroke-linejoin="round"/><path d="M227.1,608.0 C245.6,573.7 290.4,573.7 308.9,608.0 Z" fill="#F3EFE6" stroke="#5A2216" stroke-width="1.8"/>
<circle cx="278.0" cy="593.0" r="12" fill="#1B1420"/><circle cx="282.0" cy="589.0" r="3.6" fill="#FFFFFF"/><path d="M370.0,608.0 C396.4,549.9 475.6,549.9 502.0,608.0 Z" fill="#B65536" stroke="#5A2216" stroke-width="2.6" stroke-linejoin="round"/><path d="M395.1,608.0 C413.6,573.7 458.4,573.7 476.9,608.0 Z" fill="#F3EFE6" stroke="#5A2216" stroke-width="1.8"/>
<circle cx="446.0" cy="593.0" r="12" fill="#1B1420"/><circle cx="450.0" cy="589.0" r="3.6" fill="#FFFFFF"/><path d="M196,546.8 C202,296.0 502,296.0 508,546.8" fill="none" stroke="#1B2733" stroke-width="20" stroke-linecap="round"/><path d="M196,546.8 C202,296.0 502,296.0 508,546.8" fill="none" stroke="#55627A" stroke-width="5" stroke-linecap="round" opacity="0.8"/><rect x="170.0" y="520.8" width="52" height="96" rx="24" fill="url(#cup21)" stroke="#0F1720" stroke-width="2.5"/><rect x="207.0" y="530.8" width="18" height="76" rx="9" fill="#E2A62B" opacity="0.9"/><path d="M166.6,585.8 A34,34 0 0 0 166.6,551.8" fill="none" stroke="#F3EFE6" stroke-width="3" stroke-linecap="round" opacity="0.75"/><path d="M152.7,593.8 A50,50 0 0 0 152.7,543.8" fill="none" stroke="#F3EFE6" stroke-width="3" stroke-linecap="round" opacity="0.55"/><path d="M138.8,601.8 A66,66 0 0 0 138.8,535.8" fill="none" stroke="#F3EFE6" stroke-width="3" stroke-linecap="round" opacity="0.35"/><rect x="482.0" y="520.8" width="52" height="96" rx="24" fill="url(#cup21)" stroke="#0F1720" stroke-width="2.5"/><rect x="479.0" y="530.8" width="18" height="76" rx="9" fill="#E2A62B" opacity="0.9"/><path d="M537.4,551.8 A34,34 0 0 1 537.4,585.8" fill="none" stroke="#F3EFE6" stroke-width="3" stroke-linecap="round" opacity="0.75"/><path d="M551.3,543.8 A50,50 0 0 1 551.3,593.8" fill="none" stroke="#F3EFE6" stroke-width="3" stroke-linecap="round" opacity="0.55"/><path d="M565.2,535.8 A66,66 0 0 1 565.2,601.8" fill="none" stroke="#F3EFE6" stroke-width="3" stroke-linecap="round" opacity="0.35"/><ellipse cx="162.0" cy="431.2" rx="10.8" ry="7.8" transform="rotate(-20 162.0 431.2)" fill="#F3EFE6"/><line x1="171.3" y1="429.7" x2="171.3" y2="398.2" stroke="#F3EFE6" stroke-width="2.7" stroke-linecap="round"/><ellipse cx="190.5" cy="425.8" rx="10.8" ry="7.8" transform="rotate(-20 190.5 425.8)" fill="#F3EFE6"/><line x1="199.8" y1="424.3" x2="199.8" y2="392.8" stroke="#F3EFE6" stroke-width="2.7" stroke-linecap="round"/><polygon points="170.3,398.2 200.8,392.8 200.8,399.4 170.3,404.8" fill="#F3EFE6"/><ellipse cx="516.0" cy="415.6" rx="12.2" ry="8.8" transform="rotate(-20 516.0 415.6)" fill="#E2A62B"/><line x1="526.5" y1="413.9" x2="526.5" y2="378.2" stroke="#E2A62B" stroke-width="3.1" stroke-linecap="round"/><path d="M526.5,378.2 q10.9,6.1 10.2,18.7 q-1.4,-8.2 -10.2,-10.9 Z" fill="#E2A62B"/><ellipse cx="560.0" cy="488.4" rx="7.9" ry="5.7" transform="rotate(-20 560.0 488.4)" fill="#F3EFE6"/><line x1="566.8" y1="487.3" x2="566.8" y2="464.2" stroke="#F3EFE6" stroke-width="2.0" stroke-linecap="round"/><path d="M566.8,464.2 q7.0,4.0 6.6,12.1 q-0.9,-5.3 -6.6,-7.0 Z" fill="#F3EFE6"/><text x="352.0" y="316.0" font-family="'Noto Serif', serif" font-size="37.5" font-weight="700" fill="#F3EFE6" text-anchor="middle">HARTĂ PENTRU CĂȘTI</text>
<text x="352.0" y="348.0" font-family="Inter, sans-serif" font-size="17" font-weight="500" fill="#E9E1FF" text-anchor="middle" font-style="italic">playlistul Dariei M. · zece locuri din Sibiu</text>
<rect x="92" y="710" width="520" height="40" fill="#E2A62B"/><text x="352.0" y="737.0" font-family="Inter, sans-serif" font-size="16.5" font-weight="800" fill="#0F1720" text-anchor="middle" letter-spacing="1.6">PIESE IMAGINARE – NU EXISTĂ ÎNREGISTRĂRI</text>
</g>
<rect x="92" y="244" width="520" height="520" rx="6" fill="none" stroke="#000" stroke-opacity="0.35" stroke-width="1.5"/>
<text x="92.0" y="802.0" font-family="'Noto Serif', serif" font-size="21" font-weight="700" fill="#F3EFE6" text-anchor="start">Daria M., 17 ani – personaj fictiv</text>
<text x="92.0" y="830.0" font-family="Inter, sans-serif" font-size="16" font-weight="400" fill="#A9B4C0" text-anchor="start">Și-a imaginat zece piese despre locurile ei din Sibiu. Titlurile, stilurile, duratele și coperta</text>
<text x="92.0" y="851.0" font-family="Inter, sans-serif" font-size="16" font-weight="400" fill="#A9B4C0" text-anchor="start">(desen original) sunt inventate; faptele despre locuri sunt reale, din fișa proiectului.</text>
<rect x="92" y="874" width="674" height="130" rx="16" fill="#0D3A40" stroke="#0E7C86" stroke-width="1.4"/><text x="114.0" y="906.0" font-family="'Noto Serif', serif" font-size="19" font-weight="700" fill="#F3EFE6" text-anchor="start">Fă-ți și tu playlistul</text>
<circle cx="124" cy="927" r="11" fill="#0E7C86"/><text x="124.0" y="932.0" font-family="Inter, sans-serif" font-size="13" font-weight="700" fill="#F3EFE6" text-anchor="middle">1</text>
<text x="144.0" y="932.0" font-family="Inter, sans-serif" font-size="15.5" font-weight="400" fill="#D6E6E8" text-anchor="start">Alege zece locuri din Sibiu și verifică un fapt despre fiecare.</text>
<circle cx="124" cy="952" r="11" fill="#0E7C86"/><text x="124.0" y="957.0" font-family="Inter, sans-serif" font-size="13" font-weight="700" fill="#F3EFE6" text-anchor="middle">2</text>
<text x="144.0" y="957.0" font-family="Inter, sans-serif" font-size="15.5" font-weight="400" fill="#D6E6E8" text-anchor="start">Inventează titluri, apoi caută-le: să nu fie piese care există deja.</text>
<circle cx="124" cy="977" r="11" fill="#0E7C86"/><text x="124.0" y="982.0" font-family="Inter, sans-serif" font-size="13" font-weight="700" fill="#F3EFE6" text-anchor="middle">3</text>
<text x="144.0" y="982.0" font-family="Inter, sans-serif" font-size="15.5" font-weight="400" fill="#D6E6E8" text-anchor="start">Desenează coperta tu sau cu AI – fără logo-uri și coperți reale.</text>
<rect x="800" y="236" width="1040" height="768" rx="22" fill="#1B2733" stroke="#2A3845" stroke-width="1.5" />
<rect x="800" y="236" width="1040" height="7" rx="3.5" fill="#F76B15"/>
<text x="830.0" y="286.0" font-family="'Noto Serif', serif" font-size="27" font-weight="700" fill="#F3EFE6" text-anchor="start">Lista pieselor</text>
<text x="1031.6" y="286.0" font-family="'Noto Serif', serif" font-size="20" font-weight="400" fill="#A9B4C0" text-anchor="start" font-style="italic">„Hartă pentru căști”</text>
<text x="1810.0" y="286.0" font-family="Inter, sans-serif" font-size="16" font-weight="500" fill="#7E8A96" text-anchor="end" font-style="italic">durata totală: 33:44 (imaginară)</text>
<text x="830.0" y="320.0" font-family="Inter, sans-serif" font-size="12.5" font-weight="700" fill="#7E8A96" text-anchor="start" letter-spacing="2">NR.</text>
<text x="886.0" y="320.0" font-family="Inter, sans-serif" font-size="12.5" font-weight="700" fill="#7E8A96" text-anchor="start" letter-spacing="2">TITLUL INVENTAT · STIL IMAGINAT</text>
<text x="1810.0" y="320.0" font-family="Inter, sans-serif" font-size="12.5" font-weight="700" fill="#7E8A96" text-anchor="end" letter-spacing="2">DURATĂ</text>
<line x1="824" y1="332" x2="1816" y2="332" stroke="#34465A" stroke-width="1.5"/>
<text x="830.0" y="366.0" font-family="Inter, sans-serif" font-size="22" font-weight="700" fill="#E2A62B" text-anchor="start">01</text>
<text x="886.0" y="366.0" font-family="'Noto Serif', serif" font-size="21" font-weight="700" fill="#F3EFE6" text-anchor="start">„Acoperișuri cu gene”</text>
<rect x="1132.1" y="348" width="85.5" height="24" rx="12" fill="none" stroke="#6E56CF" stroke-width="1.4"/><text x="1174.9" y="364.5" font-family="Inter, sans-serif" font-size="13" font-weight="600" fill="#C9BEF5" text-anchor="middle">synth-pop</text>
<text x="1810.0" y="366.0" font-family="Inter, sans-serif" font-size="19" font-weight="600" fill="#F3EFE6" text-anchor="end">3:12</text>
<path d="M893,393 C886,385 886,378 893,377 C900,378 900,385 893,393 Z" fill="#E2A62B"/><circle cx="893" cy="382.5" r="2.4" fill="#0F1720"/><text x="908.0" y="390.0" font-family="Inter, sans-serif" font-size="15.5" font-weight="700" fill="#E2A62B" text-anchor="start">Acoperișurile centrului istoric – </text>
<text x="1147.7" y="390.0" font-family="Inter, sans-serif" font-size="15.5" font-weight="400" fill="#A9B4C0" text-anchor="start">lucarnele „ochii Sibiului” ventilează podurile; cele mai multe sunt din secolul al XIX-lea.</text>
<rect x="812" y="398" width="1016" height="62" rx="10" fill="#203040" opacity="0.55"/><text x="830.0" y="428.0" font-family="Inter, sans-serif" font-size="22" font-weight="700" fill="#E2A62B" text-anchor="start">02</text>
<text x="886.0" y="428.0" font-family="'Noto Serif', serif" font-size="21" font-weight="700" fill="#F3EFE6" text-anchor="start">„Văd tot de sus”</text>
<rect x="1064.2" y="410" width="84.4" height="24" rx="12" fill="none" stroke="#6E56CF" stroke-width="1.4"/><text x="1106.4" y="426.5" font-family="Inter, sans-serif" font-size="13" font-weight="600" fill="#C9BEF5" text-anchor="middle">indie-rock</text>
<text x="1810.0" y="428.0" font-family="Inter, sans-serif" font-size="19" font-weight="600" fill="#F3EFE6" text-anchor="end">2:47</text>
<path d="M893,455 C886,447 886,440 893,439 C900,440 900,447 893,455 Z" fill="#E2A62B"/><circle cx="893" cy="444.5" r="2.4" fill="#0F1720"/><text x="908.0" y="452.0" font-family="Inter, sans-serif" font-size="15.5" font-weight="700" fill="#E2A62B" text-anchor="start">Turnul Sfatului – </text>
<text x="1034.0" y="452.0" font-family="Inter, sans-serif" font-size="15.5" font-weight="400" fill="#A9B4C0" text-anchor="start">între Piața Mare și Piața Mică; a fost depozit de grâne și punct de observație pentru incendii.</text>
<text x="830.0" y="490.0" font-family="Inter, sans-serif" font-size="22" font-weight="700" fill="#E2A62B" text-anchor="start">03</text>
<text x="886.0" y="490.0" font-family="'Noto Serif', serif" font-size="21" font-weight="700" fill="#F3EFE6" text-anchor="start">„Jur pe pod”</text>
<rect x="1030.3" y="472" width="93.1" height="24" rx="12" fill="none" stroke="#6E56CF" stroke-width="1.4"/><text x="1076.9" y="488.5" font-family="Inter, sans-serif" font-size="13" font-weight="600" fill="#C9BEF5" text-anchor="middle">pop acustic</text>
<text x="1810.0" y="490.0" font-family="Inter, sans-serif" font-size="19" font-weight="600" fill="#F3EFE6" text-anchor="end">3:05</text>
<path d="M893,517 C886,509 886,502 893,501 C900,502 900,509 893,517 Z" fill="#E2A62B"/><circle cx="893" cy="506.5" r="2.4" fill="#0F1720"/><text x="908.0" y="514.0" font-family="Inter, sans-serif" font-size="15.5" font-weight="700" fill="#E2A62B" text-anchor="start">Podul Minciunilor – </text>
<text x="1055.0" y="514.0" font-family="Inter, sans-serif" font-size="15.5" font-weight="400" fill="#A9B4C0" text-anchor="start">primul pod din fontă din România (1859); legenda spune că se prăbușește dacă minți pe el.</text>
<rect x="812" y="522" width="1016" height="62" rx="10" fill="#203040" opacity="0.55"/><text x="830.0" y="552.0" font-family="Inter, sans-serif" font-size="22" font-weight="700" fill="#E2A62B" text-anchor="start">04</text>
<text x="886.0" y="552.0" font-family="'Noto Serif', serif" font-size="21" font-weight="700" fill="#F3EFE6" text-anchor="start">„Scara dintre orașe”</text>
<rect x="1115.3" y="534" width="45.9" height="24" rx="12" fill="none" stroke="#6E56CF" stroke-width="1.4"/><text x="1138.2" y="550.5" font-family="Inter, sans-serif" font-size="13" font-weight="600" fill="#C9BEF5" text-anchor="middle">lo-fi</text>
<text x="1810.0" y="552.0" font-family="Inter, sans-serif" font-size="19" font-weight="600" fill="#F3EFE6" text-anchor="end">2:58</text>
<path d="M893,579 C886,571 886,564 893,563 C900,564 900,571 893,579 Z" fill="#E2A62B"/><circle cx="893" cy="568.5" r="2.4" fill="#0F1720"/><text x="908.0" y="576.0" font-family="Inter, sans-serif" font-size="15.5" font-weight="700" fill="#E2A62B" text-anchor="start">Pasajul Scărilor – </text>
<text x="1040.4" y="576.0" font-family="Inter, sans-serif" font-size="15.5" font-weight="400" fill="#A9B4C0" text-anchor="start">leagă Orașul de Sus de Orașul de Jos, lângă Turnul Scărilor, refăcut în 1542.</text>
<text x="830.0" y="614.0" font-family="Inter, sans-serif" font-size="22" font-weight="700" fill="#E2A62B" text-anchor="start">05</text>
<text x="886.0" y="614.0" font-family="'Noto Serif', serif" font-size="21" font-weight="700" fill="#F3EFE6" text-anchor="start">„Locul 483”</text>
<rect x="1020.2" y="596" width="130.6" height="24" rx="12" fill="none" stroke="#6E56CF" stroke-width="1.4"/><text x="1085.5" y="612.5" font-family="Inter, sans-serif" font-size="13" font-weight="600" fill="#C9BEF5" text-anchor="middle">cvartet de coarde</text>
<text x="1810.0" y="614.0" font-family="Inter, sans-serif" font-size="19" font-weight="600" fill="#F3EFE6" text-anchor="end">3:33</text>
<path d="M893,641 C886,633 886,626 893,625 C900,626 900,633 893,641 Z" fill="#E2A62B"/><circle cx="893" cy="630.5" r="2.4" fill="#0F1720"/><text x="908.0" y="638.0" font-family="Inter, sans-serif" font-size="15.5" font-weight="700" fill="#E2A62B" text-anchor="start">Sala Thalia – </text>
<text x="1005.5" y="638.0" font-family="Inter, sans-serif" font-size="15.5" font-weight="400" fill="#A9B4C0" text-anchor="start">482 de locuri; prima clădire de teatru din țară (1787–1788); din 2004, sediul Filarmonicii.</text>
<rect x="812" y="646" width="1016" height="62" rx="10" fill="#203040" opacity="0.55"/><text x="830.0" y="676.0" font-family="Inter, sans-serif" font-size="22" font-weight="700" fill="#E2A62B" text-anchor="start">06</text>
<text x="886.0" y="676.0" font-family="'Noto Serif', serif" font-size="21" font-weight="700" fill="#F3EFE6" text-anchor="start">„Raft cu raft”</text>
<rect x="1041.2" y="658" width="45.6" height="24" rx="12" fill="none" stroke="#6E56CF" stroke-width="1.4"/><text x="1064.0" y="674.5" font-family="Inter, sans-serif" font-size="13" font-weight="600" fill="#C9BEF5" text-anchor="middle">jazz</text>
<text x="1810.0" y="676.0" font-family="Inter, sans-serif" font-size="19" font-weight="600" fill="#F3EFE6" text-anchor="end">4:01</text>
<path d="M893,703 C886,695 886,688 893,687 C900,688 900,695 893,703 Z" fill="#E2A62B"/><circle cx="893" cy="692.5" r="2.4" fill="#0F1720"/><text x="908.0" y="700.0" font-family="Inter, sans-serif" font-size="15.5" font-weight="700" fill="#E2A62B" text-anchor="start">Biblioteca ASTRA – </text>
<text x="1055.5" y="700.0" font-family="Inter, sans-serif" font-size="15.5" font-weight="400" fill="#A9B4C0" text-anchor="start">din 1869, prima bibliotecă publică românească din Transilvania; azi, 813.551 de documente.</text>
<text x="830.0" y="738.0" font-family="Inter, sans-serif" font-size="22" font-weight="700" fill="#E2A62B" text-anchor="start">07</text>
<text x="886.0" y="738.0" font-family="'Noto Serif', serif" font-size="21" font-weight="700" fill="#F3EFE6" text-anchor="start">„Ramă aurie”</text>
<rect x="1043.6" y="720" width="90.2" height="24" rx="12" fill="none" stroke="#6E56CF" stroke-width="1.4"/><text x="1088.7" y="736.5" font-family="Inter, sans-serif" font-size="13" font-weight="600" fill="#C9BEF5" text-anchor="middle">dream-pop</text>
<text x="1810.0" y="738.0" font-family="Inter, sans-serif" font-size="19" font-weight="600" fill="#F3EFE6" text-anchor="end">3:26</text>
<path d="M893,765 C886,757 886,750 893,749 C900,750 900,757 893,765 Z" fill="#E2A62B"/><circle cx="893" cy="754.5" r="2.4" fill="#0F1720"/><text x="908.0" y="762.0" font-family="Inter, sans-serif" font-size="15.5" font-weight="700" fill="#E2A62B" text-anchor="start">Muzeul Brukenthal – </text>
<text x="1064.8" y="762.0" font-family="Inter, sans-serif" font-size="15.5" font-weight="400" fill="#A9B4C0" text-anchor="start">deschis oficial în 1817, primul muzeu din România; galeria are circa 1.200 de lucrări.</text>
<rect x="812" y="770" width="1016" height="62" rx="10" fill="#203040" opacity="0.55"/><text x="830.0" y="800.0" font-family="Inter, sans-serif" font-size="22" font-weight="700" fill="#E2A62B" text-anchor="start">08</text>
<text x="886.0" y="800.0" font-family="'Noto Serif', serif" font-size="21" font-weight="700" fill="#F3EFE6" text-anchor="start">„73 de metri și ceva”</text>
<rect x="1117.0" y="782" width="159.5" height="24" rx="12" fill="none" stroke="#6E56CF" stroke-width="1.4"/><text x="1196.7" y="798.5" font-family="Inter, sans-serif" font-size="13" font-weight="600" fill="#C9BEF5" text-anchor="middle">orgă și beat electronic</text>
<text x="1810.0" y="800.0" font-family="Inter, sans-serif" font-size="19" font-weight="600" fill="#F3EFE6" text-anchor="end">3:48</text>
<path d="M893,827 C886,819 886,812 893,811 C900,812 900,819 893,827 Z" fill="#E2A62B"/><circle cx="893" cy="816.5" r="2.4" fill="#0F1720"/><text x="908.0" y="824.0" font-family="Inter, sans-serif" font-size="15.5" font-weight="700" fill="#E2A62B" text-anchor="start">Catedrala Evanghelică – </text>
<text x="1092.6" y="824.0" font-family="Inter, sans-serif" font-size="15.5" font-weight="400" fill="#A9B4C0" text-anchor="start">turnul de 73,34 m e cel mai înalt din Transilvania; orga Sauer, montată în 1915.</text>
<text x="830.0" y="862.0" font-family="Inter, sans-serif" font-size="22" font-weight="700" fill="#E2A62B" text-anchor="start">09</text>
<text x="886.0" y="862.0" font-family="'Noto Serif', serif" font-size="21" font-weight="700" fill="#F3EFE6" text-anchor="start">„95 de păsări”</text>
<rect x="1047.8" y="844" width="66.2" height="24" rx="12" fill="none" stroke="#6E56CF" stroke-width="1.4"/><text x="1081.0" y="860.5" font-family="Inter, sans-serif" font-size="13" font-weight="600" fill="#C9BEF5" text-anchor="middle">chillout</text>
<text x="1810.0" y="862.0" font-family="Inter, sans-serif" font-size="19" font-weight="600" fill="#F3EFE6" text-anchor="end">2:39</text>
<path d="M893,889 C886,881 886,874 893,873 C900,874 900,881 893,889 Z" fill="#E2A62B"/><circle cx="893" cy="878.5" r="2.4" fill="#0F1720"/><text x="908.0" y="886.0" font-family="Inter, sans-serif" font-size="15.5" font-weight="700" fill="#E2A62B" text-anchor="start">Parcul Sub Arini – </text>
<text x="1043.8" y="886.0" font-family="Inter, sans-serif" font-size="15.5" font-weight="400" fill="#A9B4C0" text-anchor="start">înființat în 1856; 95 de specii de păsări și arbori de peste 150 de ani.</text>
<rect x="812" y="894" width="1016" height="62" rx="10" fill="#203040" opacity="0.55"/><text x="830.0" y="924.0" font-family="Inter, sans-serif" font-size="22" font-weight="700" fill="#E2A62B" text-anchor="start">10</text>
<text x="886.0" y="924.0" font-family="'Noto Serif', serif" font-size="21" font-weight="700" fill="#F3EFE6" text-anchor="start">„Satul mutat în pădure”</text>
<rect x="1154.1" y="906" width="115.5" height="24" rx="12" fill="none" stroke="#6E56CF" stroke-width="1.4"/><text x="1211.8" y="922.5" font-family="Inter, sans-serif" font-size="13" font-weight="600" fill="#C9BEF5" text-anchor="middle">electro-acustic</text>
<text x="1810.0" y="924.0" font-family="Inter, sans-serif" font-size="19" font-weight="600" fill="#F3EFE6" text-anchor="end">4:15</text>
<path d="M893,951 C886,943 886,936 893,935 C900,936 900,943 893,951 Z" fill="#E2A62B"/><circle cx="893" cy="940.5" r="2.4" fill="#0F1720"/><text x="908.0" y="948.0" font-family="Inter, sans-serif" font-size="15.5" font-weight="700" fill="#E2A62B" text-anchor="start">Muzeul ASTRA în aer liber – </text>
<text x="1119.2" y="948.0" font-family="Inter, sans-serif" font-size="15.5" font-weight="400" fill="#A9B4C0" text-anchor="start">în Dumbrava, peste 300 de case și alte construcții (alte surse: peste 400).</text>
<text x="830.0" y="984.0" font-family="Inter, sans-serif" font-size="13" font-weight="400" fill="#7E8A96" text-anchor="start" font-style="italic">Fapte: fișa proiectului (patrimoniu.sibiu.ro; en.wikipedia; zilesinopti.ro; musikland.sonoro.org; bursa.ro)</text>
<line x1="80" y1="1026" x2="1840" y2="1026" stroke="#1B2733" stroke-width="2"/>
<text x="80.0" y="1056.0" font-family="Inter, sans-serif" font-size="22" font-weight="400" fill="#A9B4C0" text-anchor="start">ACTIV AI · Sibiul meu · Artefact-model generat cu AI</text>
<text x="1840.0" y="1056.0" font-family="Inter, sans-serif" font-size="22" font-weight="600" fill="#E2A62B" text-anchor="end">#SibiulMeu</text>
</svg>
